<?xml version="1.0" encoding="UTF-8" standalone="no"?>
<svg
   xmlns:dc="http://purl.org/dc/elements/1.1/"
   xmlns:cc="http://creativecommons.org/ns#"
   xmlns:rdf="http://www.w3.org/1999/02/22-rdf-syntax-ns#"
   xmlns:svg="http://www.w3.org/2000/svg"
   xmlns="http://www.w3.org/2000/svg"
   viewBox="0 0 1122.52 793.70135"
   height="793.70135"
   width="1122.52"
   xml:space="preserve"
   id="svg2"
   version="1.1"><metadata
     id="metadata8"><rdf:RDF><cc:Work
         rdf:about=""><dc:format>image/svg+xml</dc:format><dc:type
           rdf:resource="http://purl.org/dc/dcmitype/StillImage" /></cc:Work></rdf:RDF></metadata><defs
     id="defs6"><clipPath
       id="clipPath18"
       clipPathUnits="userSpaceOnUse"><path
         id="path16"
         d="M 0,595.276 H 841.89 V 0 H 0 Z" /></clipPath></defs><g
     transform="matrix(1.3333333,0,0,-1.3333333,0,793.70133)"
     id="g10"><g
       id="g12"><g
         clip-path="url(#clipPath18)"
         id="g14"><g
           transform="translate(647.6223,296.9969)"
           id="g20"><path
             id="path22"
             style="fill:#009b95;fill-opacity:1;fill-rule:nonzero;stroke:none"
             d="m 0,0 v 0 c 0,-59.482 -48.22,-107.702 -107.702,-107.702 h -238.139 c -59.482,0 -107.702,48.22 -107.702,107.702 0,59.482 48.22,107.702 107.702,107.702 h 238.139 C -48.22,107.702 0,59.482 0,0" /></g><g
           transform="translate(308.5231,278.8055)"
           id="g24"><path
             id="path26"
             style="fill:#ffffff;fill-opacity:1;fill-rule:nonzero;stroke:none"
             d="m 0,0 h 26.197 v -26.196 c -1.336,-0.61 -2.852,-1.212 -4.549,-1.817 -1.699,-0.612 -3.638,-1.215 -5.821,-1.821 -5.701,-1.453 -11.764,-2.184 -18.192,-2.184 -16.251,0 -29.349,4.61 -39.291,13.827 -9.703,9.095 -14.552,21.283 -14.552,36.564 0,14.431 4.849,26.377 14.552,35.835 9.579,9.46 21.647,14.189 36.2,14.189 7.032,0 14.125,-1.091 21.283,-3.274 3.516,-1.091 7.245,-2.547 11.187,-4.366 3.94,-1.819 9.124,-4.61 15.553,-8.368 v 21.466 c -3.155,1.819 -6.307,3.364 -9.458,4.639 -3.155,1.272 -6.794,2.575 -10.915,3.91 -8.367,2.665 -17.586,4.003 -27.65,4.003 -20.01,0 -36.687,-6.489 -50.024,-19.465 -13.463,-12.977 -20.192,-29.105 -20.192,-48.388 0,-19.645 6.91,-36.018 20.735,-49.114 13.704,-12.98 30.805,-19.464 51.301,-19.464 8.85,0 17.28,1.091 25.284,3.272 3.881,0.976 7.64,2.186 11.278,3.639 3.638,1.457 7.578,3.274 11.824,5.457 v 54.757 l -44.75,0 z" /></g><g
           transform="translate(440.6779,317.1873)"
           id="g28"><path
             id="path30"
             style="fill:#ffffff;fill-opacity:1;fill-rule:nonzero;stroke:none"
             d="m 0,0 c -1.155,-2.426 -2.762,-4.489 -4.822,-6.185 -4.365,-3.638 -10.977,-5.456 -19.827,-5.456 h -19.464 v 40.929 h 20.373 c 4.244,0 7.913,-0.486 11.006,-1.455 3.092,-0.974 5.789,-2.364 8.095,-4.183 C -2.578,21.949 -1,19.889 0.09,17.464 1.183,15.036 1.729,12.19 1.729,8.916 1.729,5.396 1.15,2.424 0,0 m 8.822,36.929 c -3.882,3.152 -8.52,5.515 -13.916,7.093 -5.396,1.577 -11.369,2.364 -17.918,2.364 H -62.85 V -86.77 h 18.737 v 58.029 h 20.009 c 13.582,0 24.436,3.154 32.561,9.46 4.244,3.393 7.398,7.458 9.461,12.187 2.061,4.73 3.093,10.005 3.093,15.826 0,5.94 -1.001,11.306 -3.003,16.099 -2,4.79 -5.065,8.823 -9.186,12.098" /></g><g
           transform="translate(574.4699,261.5222)"
           id="g32"><path
             id="path34"
             style="fill:#ffffff;fill-opacity:1;fill-rule:nonzero;stroke:none"
             d="m 0,0 c -9.822,-9.821 -21.77,-14.734 -35.836,-14.734 -14.311,0 -26.378,4.913 -36.2,14.734 -9.703,9.703 -14.553,21.527 -14.553,35.473 0,13.826 4.912,25.65 14.735,35.473 9.824,9.824 21.83,14.735 36.018,14.735 C -21.77,85.681 -9.822,80.77 0,70.946 9.943,61 14.917,49.176 14.917,35.473 14.917,21.768 9.943,9.944 0,0 m 14.008,84.226 c -13.585,12.975 -30.197,19.464 -49.844,19.464 -20.011,0 -36.745,-6.549 -50.208,-19.645 -13.341,-12.98 -20.008,-29.17 -20.008,-48.572 0,-19.404 6.729,-35.654 20.192,-48.749 13.338,-12.981 30.013,-19.465 50.024,-19.465 19.766,0 36.382,6.55 49.844,19.645 13.579,13.217 20.373,29.407 20.373,48.569 0,19.284 -6.794,35.534 -20.373,48.753" /></g></g></g></g></svg>