<?xml version="1.0" encoding="UTF-8" standalone="no"?>
<svg
   xmlns:dc="http://purl.org/dc/elements/1.1/"
   xmlns:cc="http://creativecommons.org/ns#"
   xmlns:rdf="http://www.w3.org/1999/02/22-rdf-syntax-ns#"
   xmlns:svg="http://www.w3.org/2000/svg"
   xmlns="http://www.w3.org/2000/svg"
   viewBox="0 0 1085.0387 869.43066"
   height="869.43066"
   width="1085.0387"
   xml:space="preserve"
   id="svg2"
   version="1.1"><metadata
     id="metadata8"><rdf:RDF><cc:Work
         rdf:about=""><dc:format>image/svg+xml</dc:format><dc:type
           rdf:resource="http://purl.org/dc/dcmitype/StillImage" /></cc:Work></rdf:RDF></metadata><defs
     id="defs6"><clipPath
       id="clipPath22"
       clipPathUnits="userSpaceOnUse"><path
         id="path20"
         d="M 0,652.073 H 813.779 V 0 H 0 Z" /></clipPath></defs><g
     transform="matrix(1.3333333,0,0,-1.3333333,0,869.43067)"
     id="g10"><path
       id="path12"
       style="fill:#2781c2;fill-opacity:1;fill-rule:nonzero;stroke:none"
       d="M 669.136,206.489 H 134.609 v 283.112 h 534.527 z" /><path
       id="path14"
       style="fill:#ffffff;fill-opacity:1;fill-rule:nonzero;stroke:none"
       d="m 139.493,211.372 h 524.76 V 484.717 H 139.493 Z M 674.02,201.605 H 129.726 V 494.484 H 674.02 Z" /><g
       id="g16"><g
         clip-path="url(#clipPath22)"
         id="g18"><g
           transform="translate(265.5642,338.5148)"
           id="g24"><path
             id="path26"
             style="fill:#ffffff;fill-opacity:1;fill-rule:nonzero;stroke:none"
             d="m 0,0 c 0.436,3.107 1.814,5.457 4.141,7.103 1.317,0.942 2.809,1.462 4.432,1.539 0.957,0 1.891,-0.077 2.947,-0.329 0.926,-0.184 1.891,-0.781 3.008,-1.814 1.156,-0.95 1.654,-1.654 1.753,-1.998 0.605,-1.975 1.118,-3.812 1.202,-5.542 0.099,-1.715 0.099,-3.031 -0.084,-3.896 0,-3.866 -0.352,-6.575 -1.118,-8.045 -0.352,-0.766 -0.773,-1.654 -1.125,-2.419 -0.459,-0.712 -1.056,-1.47 -2.097,-2.266 -0.513,-0.513 -1.317,-0.941 -2.243,-1.546 -0.62,-0.36 -1.37,-0.544 -2.243,-0.544 -0.536,0.1 -1.033,0.1 -1.722,0.284 -1.041,0.26 -1.944,0.543 -2.541,1.025 -0.597,0.444 -1.202,0.965 -1.799,1.485 -1.386,1.217 -2.166,3.016 -2.335,5.374 C -0.421,-8.045 -0.52,-4.149 0,0 m -18.356,-15.929 c 0.781,-3.1 2.748,-5.787 5.803,-8.137 7.172,-3.896 14.276,-4.486 21.126,-1.998 2.595,0.949 5.083,2.35 7.708,4.248 l 0.192,-4.769 c 0,-0.084 0.926,-0.084 2.824,0 1.998,0.092 4.325,0.192 7.027,0.268 2.756,0.092 5.619,0.092 8.573,0.092 2.664,0 4.983,-0.168 6.989,-0.444 h 0.52 v 5.014 c -0.176,0 -0.344,-0.061 -0.52,-0.061 -2.511,-0.444 -4.218,-0.276 -5.19,0.421 -1.033,0.673 -1.722,2.082 -1.983,4.064 v 48.224 c -0.535,2.235 -1.576,4.226 -3.191,6.155 -1.761,1.798 -4.257,3.283 -7.816,4.493 -4.592,1.201 -9.606,1.714 -15.133,1.377 H 8.137 L -6.246,41.12 -14.559,39.39 c 0.635,-5.802 0.444,-12.033 -0.62,-18.623 H 0.857 v 8.672 c 0,2.572 0.957,3.965 1.73,5.29 0.184,0.421 0.957,0.834 1.799,1.355 0.712,0.436 1.929,0.796 3.751,0.796 h 0.436 c 2.495,-0.092 4.302,-0.697 5.527,-1.991 1.056,-1.125 1.485,-2.618 1.301,-4.34 V 12.722 c -1.661,0.52 -3.299,0.949 -4.937,1.393 C 9.882,14.268 9.27,14.452 8.573,14.528 7.54,14.796 6.414,14.98 5.289,15.064 0.26,15.669 -3.46,15.5 -6.062,14.528 c -2.595,-0.857 -4.509,-1.73 -5.78,-2.495 -2.082,-1.286 -3.659,-2.702 -4.707,-4.241 -1.026,-1.561 -1.898,-3.291 -2.595,-5.266 -0.521,-1.309 -0.873,-3.139 -0.873,-5.45 -0.084,-2.366 0,-4.608 0.276,-6.683 0.076,-1.14 0.513,-3.291 1.385,-6.322" /></g><g
           transform="translate(265.5642,338.5148)"
           id="g28"><path
             id="path30"
             style="fill:none;stroke:#ffffff;stroke-width:0.222;stroke-linecap:round;stroke-linejoin:round;stroke-miterlimit:10;stroke-dasharray:none;stroke-opacity:1"
             d="m 0,0 c 0.436,3.107 1.814,5.457 4.141,7.103 1.317,0.942 2.809,1.462 4.432,1.539 0.957,0 1.891,-0.077 2.947,-0.329 0.926,-0.184 1.891,-0.781 3.008,-1.814 1.156,-0.95 1.654,-1.654 1.753,-1.998 0.605,-1.975 1.118,-3.812 1.202,-5.542 0.099,-1.715 0.099,-3.031 -0.084,-3.896 0,-3.866 -0.352,-6.575 -1.118,-8.045 -0.352,-0.766 -0.773,-1.654 -1.125,-2.419 -0.459,-0.712 -1.056,-1.47 -2.097,-2.266 -0.513,-0.513 -1.317,-0.941 -2.243,-1.546 -0.62,-0.36 -1.37,-0.544 -2.243,-0.544 -0.536,0.1 -1.033,0.1 -1.722,0.284 -1.041,0.26 -1.944,0.543 -2.541,1.025 -0.597,0.444 -1.202,0.965 -1.799,1.485 -1.386,1.217 -2.166,3.016 -2.335,5.374 C -0.421,-8.045 -0.52,-4.149 0,0 Z m -18.356,-15.929 c 0.781,-3.1 2.748,-5.787 5.803,-8.137 7.172,-3.896 14.276,-4.486 21.126,-1.998 2.595,0.949 5.083,2.35 7.708,4.248 l 0.192,-4.769 c 0,-0.084 0.926,-0.084 2.824,0 1.998,0.092 4.325,0.192 7.027,0.268 2.756,0.092 5.619,0.092 8.573,0.092 2.664,0 4.983,-0.168 6.989,-0.444 h 0.52 v 5.014 c -0.176,0 -0.344,-0.061 -0.52,-0.061 -2.511,-0.444 -4.218,-0.276 -5.19,0.421 -1.033,0.673 -1.722,2.082 -1.983,4.064 v 48.224 c -0.535,2.235 -1.576,4.226 -3.191,6.155 -1.761,1.798 -4.257,3.283 -7.816,4.493 -4.592,1.201 -9.606,1.714 -15.133,1.377 H 8.137 L -6.246,41.12 -14.559,39.39 c 0.635,-5.802 0.444,-12.033 -0.62,-18.623 H 0.857 v 8.672 c 0,2.572 0.957,3.965 1.73,5.29 0.184,0.421 0.957,0.834 1.799,1.355 0.712,0.436 1.929,0.796 3.751,0.796 h 0.436 c 2.495,-0.092 4.302,-0.697 5.527,-1.991 1.056,-1.125 1.485,-2.618 1.301,-4.34 V 12.722 c -1.661,0.52 -3.299,0.949 -4.937,1.393 C 9.882,14.268 9.27,14.452 8.573,14.528 7.54,14.796 6.414,14.98 5.289,15.064 0.26,15.669 -3.46,15.5 -6.062,14.528 c -2.595,-0.857 -4.509,-1.73 -5.78,-2.495 -2.082,-1.286 -3.659,-2.702 -4.707,-4.241 -1.026,-1.561 -1.898,-3.291 -2.595,-5.266 -0.521,-1.309 -0.873,-3.139 -0.873,-5.45 -0.084,-2.366 0,-4.608 0.276,-6.683 0.076,-1.14 0.513,-3.291 1.385,-6.322 z" /></g><g
           transform="translate(610.8776,451.9171)"
           id="g32"><path
             id="path34"
             style="fill:#ffffff;fill-opacity:1;fill-rule:nonzero;stroke:none"
             d="m 0,0 c 2.511,2.587 5.611,3.796 9.178,3.796 3.46,0 6.368,-1.209 9.055,-3.72 2.71,-2.441 4.003,-5.541 4.003,-9.33 0,-3.751 -1.293,-6.851 -3.819,-9.354 -2.603,-2.419 -5.703,-3.736 -9.239,-3.736 -3.644,0 -6.744,1.317 -9.262,3.804 -2.541,2.611 -3.82,5.627 -3.82,9.286 0,3.628 1.279,6.728 3.904,9.254 m 9.178,-24.946 c 4.317,0 7.938,1.569 11.076,4.592 3.016,3.024 4.57,6.675 4.57,11.1 0,4.569 -1.554,8.289 -4.654,11.229 -3.116,2.947 -6.767,4.417 -10.992,4.417 -4.409,0 -8.145,-1.547 -11.176,-4.593 -3.039,-3.024 -4.509,-6.744 -4.509,-11.053 0,-4.425 1.57,-8.16 4.662,-11.184 3.062,-2.939 6.759,-4.508 11.023,-4.508" /></g><g
           transform="translate(610.8776,451.9171)"
           id="g36"><path
             id="path38"
             style="fill:none;stroke:#ffffff;stroke-width:0.222;stroke-linecap:round;stroke-linejoin:round;stroke-miterlimit:10;stroke-dasharray:none;stroke-opacity:1"
             d="m 0,0 c 2.511,2.587 5.611,3.796 9.178,3.796 3.46,0 6.368,-1.209 9.055,-3.72 2.71,-2.441 4.003,-5.541 4.003,-9.33 0,-3.751 -1.293,-6.851 -3.819,-9.354 -2.603,-2.419 -5.703,-3.736 -9.239,-3.736 -3.644,0 -6.744,1.317 -9.262,3.804 -2.541,2.611 -3.82,5.627 -3.82,9.286 0,3.628 1.279,6.728 3.904,9.254 z m 9.178,-24.946 c 4.317,0 7.938,1.569 11.076,4.592 3.016,3.024 4.57,6.675 4.57,11.1 0,4.569 -1.554,8.289 -4.654,11.229 -3.116,2.947 -6.767,4.417 -10.992,4.417 -4.409,0 -8.145,-1.547 -11.176,-4.593 -3.039,-3.024 -4.509,-6.744 -4.509,-11.053 0,-4.425 1.57,-8.16 4.662,-11.184 3.062,-2.939 6.759,-4.508 11.023,-4.508 z" /></g><g
           transform="translate(615.8913,448.5263)"
           id="g40"><path
             id="path42"
             style="fill:#ffffff;fill-opacity:1;fill-rule:nonzero;stroke:none"
             d="m 0,0 h 3.107 1.057 c 2.182,-0.176 3.284,-1.026 3.284,-2.488 0,-1.485 -1.102,-2.365 -3.284,-2.526 -0.268,0 -0.543,-0.084 -0.903,-0.084 l -3.261,0 z m 0,-7.333 h 1.615 c 0.98,0 1.83,-0.283 2.457,-0.812 0,-0.068 0.092,-0.068 0.092,-0.068 0.612,-0.628 1.462,-1.83 2.511,-3.637 l 1.469,-2.679 h 3.276 l -1.982,3.284 c -1.646,2.503 -2.932,3.912 -3.973,4.249 1.462,0.084 2.603,0.665 3.506,1.553 0.895,0.934 1.324,1.968 1.324,3.208 0,2.756 -2.082,4.325 -6.131,4.501 C 3.781,2.35 3.445,2.35 3.107,2.35 H -2.679 V -14.529 H 0 Z" /></g><g
           transform="translate(615.8913,448.5263)"
           id="g44"><path
             id="path46"
             style="fill:none;stroke:#ffffff;stroke-width:0.222;stroke-linecap:round;stroke-linejoin:round;stroke-miterlimit:10;stroke-dasharray:none;stroke-opacity:1"
             d="m 0,0 h 3.107 1.057 c 2.182,-0.176 3.284,-1.026 3.284,-2.488 0,-1.485 -1.102,-2.365 -3.284,-2.526 -0.268,0 -0.543,-0.084 -0.903,-0.084 l -3.261,0 z m 0,-7.333 h 1.615 c 0.98,0 1.83,-0.283 2.457,-0.812 0,-0.068 0.092,-0.068 0.092,-0.068 0.612,-0.628 1.462,-1.83 2.511,-3.637 l 1.469,-2.679 h 3.276 l -1.982,3.284 c -1.646,2.503 -2.932,3.912 -3.973,4.249 1.462,0.084 2.603,0.665 3.506,1.553 0.895,0.934 1.324,1.968 1.324,3.208 0,2.756 -2.082,4.325 -6.131,4.501 C 3.781,2.35 3.445,2.35 3.107,2.35 H -2.679 V -14.529 H 0 Z" /></g><g
           transform="translate(557.0199,326.405)"
           id="g48"><path
             id="path50"
             style="fill:#ffffff;fill-opacity:1;fill-rule:nonzero;stroke:none"
             d="M 0,0 C -0.268,-1.569 -1.026,-3.291 -2.327,-5.121 -3.529,-6.92 -5.549,-8.06 -8.229,-8.512 h -0.245 c -2.671,-0.505 -4.761,0.268 -6.322,2.281 -1.654,2.059 -2.511,4.31 -2.703,6.828 -0.252,3.215 -0.52,6.392 -0.665,9.606 -0.184,3.2 -0.276,6.407 -0.276,9.599 -0.076,10.656 0.345,17.843 1.294,21.395 0.367,1.462 1.217,3.108 2.641,5.006 1.27,1.921 3.176,2.871 5.672,2.871 h 0.359 c 2.404,-0.085 4.432,-0.95 5.795,-2.68 C -1.102,44.557 -0.268,42.911 0,41.442 0.773,37.813 1.209,34.185 1.316,30.626 1.477,27.005 1.477,23.362 1.393,19.802 1.477,13.242 1.041,6.667 0,0 m 20.07,36.061 c -0.941,4.256 -2.817,8.167 -5.511,11.719 -1.753,2.151 -4.945,4.064 -9.515,5.71 -4.684,1.715 -9.086,2.587 -13.273,2.587 h -0.245 c -4.118,0 -8.305,-0.612 -12.461,-1.806 -4.272,-1.217 -7.877,-3.567 -10.916,-7.096 -2.679,-3.131 -4.332,-7.126 -5.029,-11.795 -0.681,-4.754 -1.018,-9.768 -1.018,-15.042 0,-5.45 0.413,-10.555 1.194,-15.401 0.781,-4.861 2.519,-8.94 5.282,-12.04 2.962,-3.384 6.407,-5.634 10.647,-6.683 3.996,-1.018 8.183,-1.546 12.301,-1.546 h 0.245 c 4.187,0 8.229,0.612 11.934,1.73 3.842,1.194 7.134,3.46 9.958,6.682 2.871,3.284 4.884,7.517 5.994,12.714 0.413,2.243 0.857,4.409 1.133,6.744 0.329,3.123 0.574,6.415 0.574,9.783 0,3.544 -0.169,6.851 -0.574,10.05 -0.176,1.202 -0.444,2.488 -0.72,3.69" /></g><g
           transform="translate(557.0199,326.405)"
           id="g52"><path
             id="path54"
             style="fill:none;stroke:#ffffff;stroke-width:0.222;stroke-linecap:round;stroke-linejoin:round;stroke-miterlimit:10;stroke-dasharray:none;stroke-opacity:1"
             d="M 0,0 C -0.268,-1.569 -1.026,-3.291 -2.327,-5.121 -3.529,-6.92 -5.549,-8.06 -8.229,-8.512 h -0.245 c -2.671,-0.505 -4.761,0.268 -6.322,2.281 -1.654,2.059 -2.511,4.31 -2.703,6.828 -0.252,3.215 -0.52,6.392 -0.665,9.606 -0.184,3.2 -0.276,6.407 -0.276,9.599 -0.076,10.656 0.345,17.843 1.294,21.395 0.367,1.462 1.217,3.108 2.641,5.006 1.27,1.921 3.176,2.871 5.672,2.871 h 0.359 c 2.404,-0.085 4.432,-0.95 5.795,-2.68 C -1.102,44.557 -0.268,42.911 0,41.442 0.773,37.813 1.209,34.185 1.316,30.626 1.477,27.005 1.477,23.362 1.393,19.802 1.477,13.242 1.041,6.667 0,0 Z m 20.07,36.061 c -0.941,4.256 -2.817,8.167 -5.511,11.719 -1.753,2.151 -4.945,4.064 -9.515,5.71 -4.684,1.715 -9.086,2.587 -13.273,2.587 h -0.245 c -4.118,0 -8.305,-0.612 -12.461,-1.806 -4.272,-1.217 -7.877,-3.567 -10.916,-7.096 -2.679,-3.131 -4.332,-7.126 -5.029,-11.795 -0.681,-4.754 -1.018,-9.768 -1.018,-15.042 0,-5.45 0.413,-10.555 1.194,-15.401 0.781,-4.861 2.519,-8.94 5.282,-12.04 2.962,-3.384 6.407,-5.634 10.647,-6.683 3.996,-1.018 8.183,-1.546 12.301,-1.546 h 0.245 c 4.187,0 8.229,0.612 11.934,1.73 3.842,1.194 7.134,3.46 9.958,6.682 2.871,3.284 4.884,7.517 5.994,12.714 0.413,2.243 0.857,4.409 1.133,6.744 0.329,3.123 0.574,6.415 0.574,9.783 0,3.544 -0.169,6.851 -0.574,10.05 -0.176,1.202 -0.444,2.488 -0.72,3.69 z" /></g><g
           transform="translate(490.6241,355.9977)"
           id="g56"><path
             id="path58"
             style="fill:#ffffff;fill-opacity:1;fill-rule:nonzero;stroke:none"
             d="m 0,0 c -6.132,0.26 -7.961,4.417 -5.427,12.37 1.018,5.036 3.46,7.44 7.241,7.111 3.82,-0.268 5.817,-2.511 6.055,-6.843 L 8.068,5.19 h 14.437 v 16.717 c -2.84,1.462 -5.963,2.503 -9.408,3.368 -3.49,0.766 -7.264,1.21 -11.528,1.21 -9.27,-0.873 -15.929,-3.965 -19.833,-9.331 -2.35,-2.771 -3.712,-5.902 -4.325,-9.369 -0.513,-3.537 -0.589,-7.173 -0.153,-11.077 0.437,-5.006 2.58,-8.389 6.568,-10.134 3.888,-1.715 8.902,-2.496 14.972,-2.228 7.877,-0.099 10.732,-4.937 8.489,-14.459 -1.217,-4.072 -3.536,-6.705 -6.935,-7.793 -3.376,-1.132 -5.871,0.95 -7.54,6.155 l -0.88,10.563 H -22.91 v -19.06 c 6.843,-3.82 15.209,-5.266 25.329,-4.501 13.947,2.151 21.142,10.908 21.57,26.393 0.107,6.331 -1.484,10.74 -4.669,13.427 C 16.113,-2.319 9.698,-0.689 0,0" /></g><g
           transform="translate(490.6241,355.9977)"
           id="g60"><path
             id="path62"
             style="fill:none;stroke:#ffffff;stroke-width:0.222;stroke-linecap:round;stroke-linejoin:round;stroke-miterlimit:10;stroke-dasharray:none;stroke-opacity:1"
             d="m 0,0 c -6.132,0.26 -7.961,4.417 -5.427,12.37 1.018,5.036 3.46,7.44 7.241,7.111 3.82,-0.268 5.817,-2.511 6.055,-6.843 L 8.068,5.19 h 14.437 v 16.717 c -2.84,1.462 -5.963,2.503 -9.408,3.368 -3.49,0.766 -7.264,1.21 -11.528,1.21 -9.27,-0.873 -15.929,-3.965 -19.833,-9.331 -2.35,-2.771 -3.712,-5.902 -4.325,-9.369 -0.513,-3.537 -0.589,-7.173 -0.153,-11.077 0.437,-5.006 2.58,-8.389 6.568,-10.134 3.888,-1.715 8.902,-2.496 14.972,-2.228 7.877,-0.099 10.732,-4.937 8.489,-14.459 -1.217,-4.072 -3.536,-6.705 -6.935,-7.793 -3.376,-1.132 -5.871,0.95 -7.54,6.155 l -0.88,10.563 H -22.91 v -19.06 c 6.843,-3.82 15.209,-5.266 25.329,-4.501 13.947,2.151 21.142,10.908 21.57,26.393 0.107,6.331 -1.484,10.74 -4.669,13.427 C 16.113,-2.319 9.698,-0.689 0,0 Z" /></g><g
           transform="translate(628.7661,378.8619)"
           id="g64"><path
             id="path66"
             style="fill:#ffffff;fill-opacity:1;fill-rule:nonzero;stroke:none"
             d="m 0,0 c -2.939,0.337 -5.771,0.505 -8.711,0.666 -2.204,0.184 -4.409,0.283 -6.591,0.283 l -0.152,-4.08 c 3.1,0.077 5.342,-0.337 6.743,-1.202 1.546,-1.033 1.898,-2.701 1.133,-5.021 l -1.133,-9.262 -3.146,-24.763 c -0.941,-3.811 -2.403,-6.575 -4.217,-8.052 -1.899,-1.546 -3.208,-1.301 -4.088,0.78 -2.58,13.411 -4.57,26.822 -5.948,40.424 -1.24,4.945 0.957,7.617 6.713,7.969 V 1.209 C -30.021,0.337 -40.584,0.413 -50.956,1.294 -51.132,1.37 -51.4,1.37 -51.576,1.37 v -3.804 h 0.62 c 3.566,0.176 5.702,-2.519 6.483,-7.969 1.117,-8.213 2.526,-16.442 3.988,-24.739 1.523,-8.237 3.292,-16.45 5.197,-24.679 1.807,-5.457 4.471,-7.792 8.061,-6.919 3.536,0.849 7.494,3.544 11.925,8.213 -2.135,-23.04 -10.547,-30.902 -25.282,-23.545 l -2.833,-3.644 c 15.577,-9.002 27.159,-8.558 34.706,1.225 0.612,0.773 1.225,1.645 1.814,2.602 1.278,2.664 2.503,6.66 3.728,12.018 1.095,5.373 2.335,11.444 3.628,18.179 1.194,6.752 2.595,13.871 3.965,21.303 1.463,7.364 3.123,14.552 4.946,21.28 0.16,2.763 2.594,4.845 7.179,5.978 l 0.169,3.468 C 10.77,-0.437 5.136,-0.528 0,0" /></g><g
           transform="translate(628.7661,378.8619)"
           id="g68"><path
             id="path70"
             style="fill:none;stroke:#ffffff;stroke-width:0.222;stroke-linecap:round;stroke-linejoin:round;stroke-miterlimit:10;stroke-dasharray:none;stroke-opacity:1"
             d="m 0,0 c -2.939,0.337 -5.771,0.505 -8.711,0.666 -2.204,0.184 -4.409,0.283 -6.591,0.283 l -0.152,-4.08 c 3.1,0.077 5.342,-0.337 6.743,-1.202 1.546,-1.033 1.898,-2.701 1.133,-5.021 l -1.133,-9.262 -3.146,-24.763 c -0.941,-3.811 -2.403,-6.575 -4.217,-8.052 -1.899,-1.546 -3.208,-1.301 -4.088,0.78 -2.58,13.411 -4.57,26.822 -5.948,40.424 -1.24,4.945 0.957,7.617 6.713,7.969 V 1.209 C -30.021,0.337 -40.584,0.413 -50.956,1.294 -51.132,1.37 -51.4,1.37 -51.576,1.37 v -3.804 h 0.62 c 3.566,0.176 5.702,-2.519 6.483,-7.969 1.117,-8.213 2.526,-16.442 3.988,-24.739 1.523,-8.237 3.292,-16.45 5.197,-24.679 1.807,-5.457 4.471,-7.792 8.061,-6.919 3.536,0.849 7.494,3.544 11.925,8.213 -2.135,-23.04 -10.547,-30.902 -25.282,-23.545 l -2.833,-3.644 c 15.577,-9.002 27.159,-8.558 34.706,1.225 0.612,0.773 1.225,1.645 1.814,2.602 1.278,2.664 2.503,6.66 3.728,12.018 1.095,5.373 2.335,11.444 3.628,18.179 1.194,6.752 2.595,13.871 3.965,21.303 1.463,7.364 3.123,14.552 4.946,21.28 0.16,2.763 2.594,4.845 7.179,5.978 l 0.169,3.468 C 10.77,-0.437 5.136,-0.528 0,0 Z" /></g><g
           transform="translate(439.5679,333.8298)"
           id="g72"><path
             id="path74"
             style="fill:#ffffff;fill-opacity:1;fill-rule:nonzero;stroke:none"
             d="m 0,0 c 0,-3.972 -0.344,-6.736 -1.117,-8.213 -0.375,-0.781 -0.774,-1.562 -1.126,-2.358 -0.436,-0.78 -1.117,-1.538 -2.089,-2.296 -0.536,-0.528 -1.302,-0.957 -2.365,-1.585 -0.598,-0.336 -1.279,-0.52 -2.221,-0.52 -0.535,0 -1.041,0.084 -1.653,0.252 -1.11,0.192 -1.967,0.536 -2.595,0.957 -0.719,0.521 -1.309,1.049 -1.814,1.577 -1.485,1.286 -2.266,3.031 -2.442,5.45 -0.581,3.552 -0.581,7.44 -0.168,11.673 0.421,3.124 1.83,5.466 4.271,7.203 1.294,0.942 2.748,1.378 4.401,1.447 0.942,0.107 1.983,0 3.024,-0.26 0.85,-0.168 1.898,-0.773 3.054,-1.799 1.11,-1.041 1.723,-1.745 1.891,-2.09 C -0.344,7.463 0,5.642 0.077,3.812 0.184,2.074 0.184,0.804 0,0 m 19.473,-16.61 c -1.048,0.773 -1.63,2.158 -1.982,4.164 v 48.553 c -0.513,2.342 -1.546,4.424 -3.315,6.223 -1.63,1.921 -4.233,3.368 -7.754,4.585 -4.608,1.294 -9.69,1.738 -15.34,1.393 h -0.421 l -14.581,-1.906 -8.375,-1.714 c 0.712,-5.91 0.46,-12.125 -0.596,-18.792 h 16.174 v 8.734 c 0,2.602 0.589,4.34 1.737,5.274 0.505,0.451 1.095,0.964 1.814,1.477 0.773,0.52 1.998,0.781 3.827,0.781 h 0.421 c 2.496,-0.085 4.402,-0.781 5.65,-2.082 1.025,-1.11 1.446,-2.588 1.286,-4.402 V 17.744 c -1.646,0.535 -3.315,0.949 -4.953,1.393 -0.689,0.168 -1.309,0.344 -1.983,0.443 -1.041,0.269 -2.166,0.429 -3.283,0.605 -5.045,0.505 -8.834,0.337 -11.544,-0.605 -2.579,-0.887 -4.47,-1.752 -5.863,-2.51 -2.066,-1.301 -3.658,-2.695 -4.692,-4.34 -1.041,-1.546 -1.914,-3.292 -2.572,-5.267 -0.421,-1.301 -0.804,-3.222 -0.804,-5.534 -0.053,-2.365 0,-4.6 0.283,-6.683 0.1,-1.125 0.414,-3.283 1.264,-6.406 0.88,-3.085 2.77,-5.81 5.84,-8.221 7.356,-3.896 14.437,-4.486 21.371,-1.914 2.588,0.964 5.206,2.358 7.801,4.164 l 0.168,-4.769 c 0,-0.084 0.949,-0.084 2.924,0 1.914,0.092 4.34,0.192 7.103,0.268 2.764,0.092 5.619,0.092 8.581,0.092 3.009,0 5.542,-0.168 7.64,-0.444 v 5.114 c -2.81,-0.513 -4.708,-0.437 -5.826,0.26" /></g><g
           transform="translate(439.5679,333.8298)"
           id="g76"><path
             id="path78"
             style="fill:none;stroke:#ffffff;stroke-width:0.222;stroke-linecap:round;stroke-linejoin:round;stroke-miterlimit:10;stroke-dasharray:none;stroke-opacity:1"
             d="m 0,0 c 0,-3.972 -0.344,-6.736 -1.117,-8.213 -0.375,-0.781 -0.774,-1.562 -1.126,-2.358 -0.436,-0.78 -1.117,-1.538 -2.089,-2.296 -0.536,-0.528 -1.302,-0.957 -2.365,-1.585 -0.598,-0.336 -1.279,-0.52 -2.221,-0.52 -0.535,0 -1.041,0.084 -1.653,0.252 -1.11,0.192 -1.967,0.536 -2.595,0.957 -0.719,0.521 -1.309,1.049 -1.814,1.577 -1.485,1.286 -2.266,3.031 -2.442,5.45 -0.581,3.552 -0.581,7.44 -0.168,11.673 0.421,3.124 1.83,5.466 4.271,7.203 1.294,0.942 2.748,1.378 4.401,1.447 0.942,0.107 1.983,0 3.024,-0.26 0.85,-0.168 1.898,-0.773 3.054,-1.799 1.11,-1.041 1.723,-1.745 1.891,-2.09 C -0.344,7.463 0,5.642 0.077,3.812 0.184,2.074 0.184,0.804 0,0 Z m 19.473,-16.61 c -1.048,0.773 -1.63,2.158 -1.982,4.164 v 48.553 c -0.513,2.342 -1.546,4.424 -3.315,6.223 -1.63,1.921 -4.233,3.368 -7.754,4.585 -4.608,1.294 -9.69,1.738 -15.34,1.393 h -0.421 l -14.581,-1.906 -8.375,-1.714 c 0.712,-5.91 0.46,-12.125 -0.596,-18.792 h 16.174 v 8.734 c 0,2.602 0.589,4.34 1.737,5.274 0.505,0.451 1.095,0.964 1.814,1.477 0.773,0.52 1.998,0.781 3.827,0.781 h 0.421 c 2.496,-0.085 4.402,-0.781 5.65,-2.082 1.025,-1.11 1.446,-2.588 1.286,-4.402 V 17.744 c -1.646,0.535 -3.315,0.949 -4.953,1.393 -0.689,0.168 -1.309,0.344 -1.983,0.443 -1.041,0.269 -2.166,0.429 -3.283,0.605 -5.045,0.505 -8.834,0.337 -11.544,-0.605 -2.579,-0.887 -4.47,-1.752 -5.863,-2.51 -2.066,-1.301 -3.658,-2.695 -4.692,-4.34 -1.041,-1.546 -1.914,-3.292 -2.572,-5.267 -0.421,-1.301 -0.804,-3.222 -0.804,-5.534 -0.053,-2.365 0,-4.6 0.283,-6.683 0.1,-1.125 0.414,-3.283 1.264,-6.406 0.88,-3.085 2.77,-5.81 5.84,-8.221 7.356,-3.896 14.437,-4.486 21.371,-1.914 2.588,0.964 5.206,2.358 7.801,4.164 l 0.168,-4.769 c 0,-0.084 0.949,-0.084 2.924,0 1.914,0.092 4.34,0.192 7.103,0.268 2.764,0.092 5.619,0.092 8.581,0.092 3.009,0 5.542,-0.168 7.64,-0.444 v 5.114 c -2.81,-0.513 -4.708,-0.437 -5.826,0.26 z" /></g><g
           transform="translate(390.8314,320.1743)"
           id="g80"><path
             id="path82"
             style="fill:#ffffff;fill-opacity:1;fill-rule:nonzero;stroke:none"
             d="m 0,0 c -1.561,0 -2.25,1.47 -2.25,4.592 l -0.177,47.842 c 0,3.995 0.605,4.669 3.292,4.669 h 8.879 v 6.943 H -2.687 v 16.25 c -0.597,2.189 -2.595,2.702 -5.894,1.585 l -9.438,-2.771 c -3.169,-0.789 -4.577,-1.998 -4.041,-3.82 V 64.207 h -8.405 v -7.012 h 4.998 c 2.626,0 3.567,-1.462 3.567,-2.496 l 0.1,-1.982 0.176,-52.38 c 2.235,-6.063 6.629,-8.994 13.296,-8.826 6.767,0.161 12.898,2.855 18.6,8.068 L 6.399,3.085 C 3.697,1.11 1.623,0.1 0,0" /></g><g
           transform="translate(390.8314,320.1743)"
           id="g84"><path
             id="path86"
             style="fill:none;stroke:#ffffff;stroke-width:0.222;stroke-linecap:round;stroke-linejoin:round;stroke-miterlimit:10;stroke-dasharray:none;stroke-opacity:1"
             d="m 0,0 c -1.561,0 -2.25,1.47 -2.25,4.592 l -0.177,47.842 c 0,3.995 0.605,4.669 3.292,4.669 h 8.879 v 6.943 H -2.687 v 16.25 c -0.597,2.189 -2.595,2.702 -5.894,1.585 l -9.438,-2.771 c -3.169,-0.789 -4.577,-1.998 -4.041,-3.82 V 64.207 h -8.405 v -7.012 h 4.998 c 2.626,0 3.567,-1.462 3.567,-2.496 l 0.1,-1.982 0.176,-52.38 c 2.235,-6.063 6.629,-8.994 13.296,-8.826 6.767,0.161 12.898,2.855 18.6,8.068 L 6.399,3.085 C 3.697,1.11 1.623,0.1 0,0 Z" /></g><g
           transform="translate(342.6918,288.8059)"
           id="g88"><path
             id="path90"
             style="fill:#ffffff;fill-opacity:1;fill-rule:nonzero;stroke:none"
             d="m 0,0 c -6.078,-5.175 -14.038,-7.172 -17.223,-7.172 h -18.019 -33.312 -43.792 v 136.863 c 0,9.691 -0.89,14.452 10.548,16.703 v 12.461 h -72.703 v -12.461 c 9.675,-2.152 9.331,-8.129 9.331,-16.703 V -7.172 h -9.951 v -33.397 h 106.567 33.312 48.898 V 13.349 C 10.579,9.645 5.978,5.228 0,0" /></g><g
           transform="translate(342.6918,288.8059)"
           id="g92"><path
             id="path94"
             style="fill:none;stroke:#ffffff;stroke-width:0.222;stroke-linecap:round;stroke-linejoin:round;stroke-miterlimit:10;stroke-dasharray:none;stroke-opacity:1"
             d="m 0,0 c -6.078,-5.175 -14.038,-7.172 -17.223,-7.172 h -18.019 -33.312 -43.792 v 136.863 c 0,9.691 -0.89,14.452 10.548,16.703 v 12.461 h -72.703 v -12.461 c 9.675,-2.152 9.331,-8.129 9.331,-16.703 V -7.172 h -9.951 v -33.397 h 106.567 33.312 48.898 V 13.349 C 10.579,9.645 5.978,5.228 0,0 Z" /></g><g
           transform="translate(342.1713,337.2132)"
           id="g96"><path
             id="path98"
             style="fill:#ffffff;fill-opacity:1;fill-rule:nonzero;stroke:none"
             d="m 0,0 -0.605,-10.211 c -0.184,-6.728 -2.143,-10.043 -6.078,-9.951 -3.873,0.168 -6.996,3.284 -7.953,9.775 -2.342,15.661 -2.158,28.835 0,41.633 0.774,4.34 3.368,7.616 7.188,7.448 3.789,-0.176 5.879,-2.174 6.07,-6.154 0.589,-3.629 0.773,-7.287 0.337,-10.893 h 14.873 c -0.245,2.924 -0.314,5.894 -0.245,8.795 0.168,2.978 0.367,5.925 0.689,8.949 -18.272,8.312 -32.555,8.044 -42.33,-1.126 -3.1,-2.962 -4.402,-7.44 -5.542,-11.956 -0.429,-1.975 -0.88,-4.141 -1.125,-6.575 -0.329,-3.017 -0.529,-6.4 -0.529,-9.867 0.1,-3.72 0.284,-7.188 0.529,-10.296 0.245,-2.954 0.696,-5.526 1.293,-7.968 1.325,-5.021 3.139,-8.481 5.535,-10.556 5.664,-4.761 12.04,-7.096 19.251,-7.187 7.264,-0.069 15.141,1.821 23.675,5.886 -0.505,6.759 -0.505,13.51 0,20.254 z" /></g><g
           transform="translate(342.1713,337.2132)"
           id="g100"><path
             id="path102"
             style="fill:none;stroke:#ffffff;stroke-width:0.222;stroke-linecap:round;stroke-linejoin:round;stroke-miterlimit:10;stroke-dasharray:none;stroke-opacity:1"
             d="m 0,0 -0.605,-10.211 c -0.184,-6.728 -2.143,-10.043 -6.078,-9.951 -3.873,0.168 -6.996,3.284 -7.953,9.775 -2.342,15.661 -2.158,28.835 0,41.633 0.774,4.34 3.368,7.616 7.188,7.448 3.789,-0.176 5.879,-2.174 6.07,-6.154 0.589,-3.629 0.773,-7.287 0.337,-10.893 h 14.873 c -0.245,2.924 -0.314,5.894 -0.245,8.795 0.168,2.978 0.367,5.925 0.689,8.949 -18.272,8.312 -32.555,8.044 -42.33,-1.126 -3.1,-2.962 -4.402,-7.44 -5.542,-11.956 -0.429,-1.975 -0.88,-4.141 -1.125,-6.575 -0.329,-3.017 -0.529,-6.4 -0.529,-9.867 0.1,-3.72 0.284,-7.188 0.529,-10.296 0.245,-2.954 0.696,-5.526 1.293,-7.968 1.325,-5.021 3.139,-8.481 5.535,-10.556 5.664,-4.761 12.04,-7.096 19.251,-7.187 7.264,-0.069 15.141,1.821 23.675,5.886 -0.505,6.759 -0.505,13.51 0,20.254 z" /></g><g
           transform="translate(391.7959,255.1025)"
           id="g104"><path
             id="path106"
             style="fill:#ffffff;fill-opacity:1;fill-rule:nonzero;stroke:none"
             d="m 0,0 c 0.015,-0.834 0.184,-1.527 0.49,-2.086 0.314,-0.559 0.712,-1.006 1.202,-1.343 0.497,-0.333 1.048,-0.574 1.661,-0.716 0.612,-0.145 1.225,-0.214 1.852,-0.214 0.536,0 1.072,0.042 1.592,0.13 0.528,0.084 1.003,0.237 1.416,0.459 0.414,0.218 0.75,0.513 1.011,0.88 0.253,0.372 0.383,0.835 0.383,1.394 -0.016,0.505 -0.138,0.93 -0.375,1.274 C 8.994,0.127 8.665,0.417 8.244,0.651 7.83,0.888 7.333,1.087 6.759,1.244 6.177,1.405 5.55,1.55 4.868,1.684 4.271,1.799 3.682,1.922 3.092,2.056 2.495,2.186 1.929,2.346 1.393,2.538 0.85,2.725 0.345,2.951 -0.13,3.211 -0.597,3.472 -1.003,3.789 -1.347,4.164 -1.692,4.54 -1.967,4.98 -2.166,5.488 -2.365,5.997 -2.465,6.595 -2.465,7.28 c 0,0.658 0.1,1.259 0.291,1.795 0.199,0.539 0.467,1.021 0.819,1.454 0.345,0.429 0.75,0.8 1.225,1.121 0.482,0.318 0.995,0.582 1.561,0.793 0.559,0.21 1.156,0.363 1.784,0.467 0.628,0.103 1.263,0.156 1.914,0.156 1.064,0 2.043,-0.149 2.931,-0.447 0.888,-0.303 1.661,-0.724 2.312,-1.275 0.651,-0.547 1.171,-1.209 1.569,-1.99 0.391,-0.777 0.628,-1.642 0.704,-2.591 H 9.293 C 9.254,7.261 9.124,7.716 8.902,8.133 8.688,8.55 8.389,8.906 8.014,9.205 7.647,9.504 7.203,9.737 6.69,9.905 6.177,10.07 5.611,10.154 4.983,10.154 4.493,10.154 4.011,10.108 3.544,10.012 3.077,9.921 2.656,9.767 2.289,9.549 1.921,9.335 1.623,9.048 1.393,8.696 1.171,8.344 1.056,7.907 1.056,7.391 1.056,6.958 1.186,6.598 1.447,6.311 1.707,6.028 2.051,5.783 2.495,5.584 2.932,5.385 3.445,5.217 4.026,5.075 4.608,4.937 5.213,4.803 5.856,4.677 6.46,4.558 7.058,4.425 7.647,4.283 8.244,4.141 8.803,3.965 9.339,3.766 9.874,3.563 10.372,3.318 10.824,3.031 c 0.451,-0.287 0.841,-0.635 1.171,-1.048 0.337,-0.41 0.597,-0.896 0.788,-1.455 0.184,-0.559 0.283,-1.209 0.283,-1.955 0,-0.697 -0.107,-1.329 -0.329,-1.891 -0.214,-0.563 -0.505,-1.06 -0.88,-1.497 C 11.474,-5.251 11.038,-5.622 10.525,-5.936 10.02,-6.25 9.477,-6.506 8.887,-6.705 8.305,-6.904 7.7,-7.05 7.065,-7.141 6.43,-7.237 5.802,-7.279 5.174,-7.272 c -1.186,0 -2.296,0.134 -3.329,0.398 -1.034,0.264 -1.929,0.689 -2.695,1.271 -0.765,0.582 -1.37,1.336 -1.806,2.254 C -3.1,-2.426 -3.33,-1.313 -3.345,0 Z" /></g><g
           transform="translate(391.7959,255.1025)"
           id="g108"><path
             id="path110"
             style="fill:none;stroke:#ffffff;stroke-width:0.222;stroke-linecap:round;stroke-linejoin:round;stroke-miterlimit:10;stroke-dasharray:none;stroke-opacity:1"
             d="m 0,0 c 0.015,-0.834 0.184,-1.527 0.49,-2.086 0.314,-0.559 0.712,-1.006 1.202,-1.343 0.497,-0.333 1.048,-0.574 1.661,-0.716 0.612,-0.145 1.225,-0.214 1.852,-0.214 0.536,0 1.072,0.042 1.592,0.13 0.528,0.084 1.003,0.237 1.416,0.459 0.414,0.218 0.75,0.513 1.011,0.88 0.253,0.372 0.383,0.835 0.383,1.394 -0.016,0.505 -0.138,0.93 -0.375,1.274 C 8.994,0.127 8.665,0.417 8.244,0.651 7.83,0.888 7.333,1.087 6.759,1.244 6.177,1.405 5.55,1.55 4.868,1.684 4.271,1.799 3.682,1.922 3.092,2.056 2.495,2.186 1.929,2.346 1.393,2.538 0.85,2.725 0.345,2.951 -0.13,3.211 -0.597,3.472 -1.003,3.789 -1.347,4.164 -1.692,4.54 -1.967,4.98 -2.166,5.488 -2.365,5.997 -2.465,6.595 -2.465,7.28 c 0,0.658 0.1,1.259 0.291,1.795 0.199,0.539 0.467,1.021 0.819,1.454 0.345,0.429 0.75,0.8 1.225,1.121 0.482,0.318 0.995,0.582 1.561,0.793 0.559,0.21 1.156,0.363 1.784,0.467 0.628,0.103 1.263,0.156 1.914,0.156 1.064,0 2.043,-0.149 2.931,-0.447 0.888,-0.303 1.661,-0.724 2.312,-1.275 0.651,-0.547 1.171,-1.209 1.569,-1.99 0.391,-0.777 0.628,-1.642 0.704,-2.591 H 9.293 C 9.254,7.261 9.124,7.716 8.902,8.133 8.688,8.55 8.389,8.906 8.014,9.205 7.647,9.504 7.203,9.737 6.69,9.905 6.177,10.07 5.611,10.154 4.983,10.154 4.493,10.154 4.011,10.108 3.544,10.012 3.077,9.921 2.656,9.767 2.289,9.549 1.921,9.335 1.623,9.048 1.393,8.696 1.171,8.344 1.056,7.907 1.056,7.391 1.056,6.958 1.186,6.598 1.447,6.311 1.707,6.028 2.051,5.783 2.495,5.584 2.932,5.385 3.445,5.217 4.026,5.075 4.608,4.937 5.213,4.803 5.856,4.677 6.46,4.558 7.058,4.425 7.647,4.283 8.244,4.141 8.803,3.965 9.339,3.766 9.874,3.563 10.372,3.318 10.824,3.031 c 0.451,-0.287 0.841,-0.635 1.171,-1.048 0.337,-0.41 0.597,-0.896 0.788,-1.455 0.184,-0.559 0.283,-1.209 0.283,-1.955 0,-0.697 -0.107,-1.329 -0.329,-1.891 -0.214,-0.563 -0.505,-1.06 -0.88,-1.497 C 11.474,-5.251 11.038,-5.622 10.525,-5.936 10.02,-6.25 9.477,-6.506 8.887,-6.705 8.305,-6.904 7.7,-7.05 7.065,-7.141 6.43,-7.237 5.802,-7.279 5.174,-7.272 c -1.186,0 -2.296,0.134 -3.329,0.398 -1.034,0.264 -1.929,0.689 -2.695,1.271 -0.765,0.582 -1.37,1.336 -1.806,2.254 C -3.1,-2.426 -3.33,-1.313 -3.345,0 Z" /></g><path
           id="path112"
           style="fill:#ffffff;fill-opacity:1;fill-rule:nonzero;stroke:#ffffff;stroke-width:0.222;stroke-linecap:round;stroke-linejoin:round;stroke-miterlimit:10;stroke-dasharray:none;stroke-opacity:1"
           d="m 419.582,248.229 h -3.506 v 19.5 h 3.506 z" /><g
           transform="translate(444.352,248.2287)"
           id="g114"><path
             id="path116"
             style="fill:#ffffff;fill-opacity:1;fill-rule:nonzero;stroke:none"
             d="M 0,0 -8.948,14.425 V 0 h -3.506 v 19.5 h 3.965 L 0.521,4.957 V 19.5 h 3.521 l 0,-19.5 z" /></g><g
           transform="translate(444.352,248.2287)"
           id="g118"><path
             id="path120"
             style="fill:none;stroke:#ffffff;stroke-width:0.222;stroke-linecap:round;stroke-linejoin:round;stroke-miterlimit:10;stroke-dasharray:none;stroke-opacity:1"
             d="M 0,0 -8.948,14.425 V 0 h -3.506 v 19.5 h 3.965 L 0.521,4.957 V 19.5 h 3.521 l 0,-19.5 z" /></g><g
           transform="translate(473.3399,263.1551)"
           id="g122"><path
             id="path124"
             style="fill:#ffffff;fill-opacity:1;fill-rule:nonzero;stroke:none"
             d="M 0,0 C -0.306,0.475 -0.681,0.869 -1.11,1.183 -1.539,1.497 -2.021,1.726 -2.549,1.876 -3.085,2.025 -3.644,2.101 -4.248,2.101 -4.96,2.101 -5.603,2.009 -6.193,1.826 -6.774,1.642 -7.295,1.389 -7.754,1.064 -8.206,0.739 -8.604,0.348 -8.94,-0.1 c -0.337,-0.447 -0.613,-0.937 -0.827,-1.465 -0.222,-0.528 -0.391,-1.091 -0.498,-1.68 -0.107,-0.594 -0.16,-1.195 -0.16,-1.807 0,-0.995 0.13,-1.944 0.367,-2.836 0.245,-0.896 0.62,-1.676 1.125,-2.346 0.505,-0.666 1.148,-1.198 1.929,-1.588 0.781,-0.395 1.715,-0.59 2.802,-0.59 0.819,0 1.531,0.142 2.143,0.429 0.62,0.287 1.133,0.662 1.546,1.133 0.421,0.467 0.735,1.002 0.957,1.604 0.222,0.6 0.345,1.216 0.375,1.84 H 4.333 C 4.203,-8.642 3.919,-9.748 3.498,-10.72 3.069,-11.696 2.495,-12.523 1.784,-13.2 c -0.72,-0.678 -1.585,-1.194 -2.588,-1.55 -1.002,-0.356 -2.151,-0.536 -3.444,-0.536 -1.631,0 -3.055,0.256 -4.264,0.769 -1.209,0.513 -2.22,1.217 -3.023,2.121 -0.804,0.899 -1.409,1.959 -1.799,3.18 -0.398,1.221 -0.597,2.537 -0.597,3.954 0,0.96 0.099,1.879 0.283,2.759 0.191,0.881 0.475,1.703 0.842,2.465 0.367,0.761 0.827,1.45 1.378,2.074 0.543,0.62 1.179,1.152 1.898,1.596 0.72,0.44 1.524,0.781 2.411,1.022 0.896,0.241 1.868,0.36 2.924,0.36 1.088,0 2.098,-0.142 3.047,-0.421 C -0.199,4.313 0.643,3.896 1.385,3.338 2.128,2.779 2.748,2.078 3.253,1.237 3.751,0.398 4.103,-0.582 4.294,-1.699 H 0.689 C 0.536,-1.041 0.306,-0.475 0,0" /></g><g
           transform="translate(473.3399,263.1551)"
           id="g126"><path
             id="path128"
             style="fill:none;stroke:#ffffff;stroke-width:0.222;stroke-linecap:round;stroke-linejoin:round;stroke-miterlimit:10;stroke-dasharray:none;stroke-opacity:1"
             d="M 0,0 C -0.306,0.475 -0.681,0.869 -1.11,1.183 -1.539,1.497 -2.021,1.726 -2.549,1.876 -3.085,2.025 -3.644,2.101 -4.248,2.101 -4.96,2.101 -5.603,2.009 -6.193,1.826 -6.774,1.642 -7.295,1.389 -7.754,1.064 -8.206,0.739 -8.604,0.348 -8.94,-0.1 c -0.337,-0.447 -0.613,-0.937 -0.827,-1.465 -0.222,-0.528 -0.391,-1.091 -0.498,-1.68 -0.107,-0.594 -0.16,-1.195 -0.16,-1.807 0,-0.995 0.13,-1.944 0.367,-2.836 0.245,-0.896 0.62,-1.676 1.125,-2.346 0.505,-0.666 1.148,-1.198 1.929,-1.588 0.781,-0.395 1.715,-0.59 2.802,-0.59 0.819,0 1.531,0.142 2.143,0.429 0.62,0.287 1.133,0.662 1.546,1.133 0.421,0.467 0.735,1.002 0.957,1.604 0.222,0.6 0.345,1.216 0.375,1.84 H 4.333 C 4.203,-8.642 3.919,-9.748 3.498,-10.72 3.069,-11.696 2.495,-12.523 1.784,-13.2 c -0.72,-0.678 -1.585,-1.194 -2.588,-1.55 -1.002,-0.356 -2.151,-0.536 -3.444,-0.536 -1.631,0 -3.055,0.256 -4.264,0.769 -1.209,0.513 -2.22,1.217 -3.023,2.121 -0.804,0.899 -1.409,1.959 -1.799,3.18 -0.398,1.221 -0.597,2.537 -0.597,3.954 0,0.96 0.099,1.879 0.283,2.759 0.191,0.881 0.475,1.703 0.842,2.465 0.367,0.761 0.827,1.45 1.378,2.074 0.543,0.62 1.179,1.152 1.898,1.596 0.72,0.44 1.524,0.781 2.411,1.022 0.896,0.241 1.868,0.36 2.924,0.36 1.088,0 2.098,-0.142 3.047,-0.421 C -0.199,4.313 0.643,3.896 1.385,3.338 2.128,2.779 2.748,2.078 3.253,1.237 3.751,0.398 4.103,-0.582 4.294,-1.699 H 0.689 C 0.536,-1.041 0.306,-0.475 0,0 Z" /></g><g
           transform="translate(503.2312,267.7288)"
           id="g130"><path
             id="path132"
             style="fill:#ffffff;fill-opacity:1;fill-rule:nonzero;stroke:none"
             d="M 0,0 -0.008,-2.951 H -10.862 V -7.93 h 9.607 l 0.007,-2.962 h -9.614 v -5.695 H 0.069 V -19.5 H -14.375 V 0 Z" /></g><g
           transform="translate(503.2312,267.7288)"
           id="g134"><path
             id="path136"
             style="fill:none;stroke:#ffffff;stroke-width:0.222;stroke-linecap:round;stroke-linejoin:round;stroke-miterlimit:10;stroke-dasharray:none;stroke-opacity:1"
             d="M 0,0 -0.008,-2.951 H -10.862 V -7.93 h 9.607 l 0.007,-2.962 h -9.614 v -5.695 H 0.069 V -19.5 H -14.375 V 0 Z" /></g><g
           transform="translate(529.3104,263.9973)"
           id="g138"><path
             id="path140"
             style="fill:#ffffff;fill-opacity:1;fill-rule:nonzero;stroke:none"
             d="m 0,0 c 0.704,0.042 1.362,0.107 1.967,0.203 0.613,0.092 1.156,0.264 1.63,0.52 0.475,0.257 0.881,0.621 1.21,1.095 0.337,0.471 0.582,1.106 0.742,1.906 H 8.42 L 8.428,-15.769 H 5.197 L 5.19,-2.044 C 4.539,-2.35 3.781,-2.564 2.932,-2.687 2.074,-2.809 1.087,-2.882 -0.038,-2.901 Z" /></g><g
           transform="translate(529.3104,263.9973)"
           id="g142"><path
             id="path144"
             style="fill:none;stroke:#ffffff;stroke-width:0.222;stroke-linecap:round;stroke-linejoin:round;stroke-miterlimit:10;stroke-dasharray:none;stroke-opacity:1"
             d="m 0,0 c 0.704,0.042 1.362,0.107 1.967,0.203 0.613,0.092 1.156,0.264 1.63,0.52 0.475,0.257 0.881,0.621 1.21,1.095 0.337,0.471 0.582,1.106 0.742,1.906 H 8.42 L 8.428,-15.769 H 5.197 L 5.19,-2.044 C 4.539,-2.35 3.781,-2.564 2.932,-2.687 2.074,-2.809 1.087,-2.882 -0.038,-2.901 Z" /></g><g
           transform="translate(558.6197,257.5445)"
           id="g146"><path
             id="path148"
             style="fill:#ffffff;fill-opacity:1;fill-rule:nonzero;stroke:none"
             d="M 0,0 C 0.574,0 1.095,0.1 1.546,0.299 1.998,0.501 2.38,0.773 2.687,1.121 2.993,1.474 3.23,1.879 3.391,2.346 3.552,2.809 3.628,3.31 3.628,3.843 3.628,4.378 3.544,4.88 3.383,5.343 3.215,5.806 2.97,6.2 2.656,6.533 2.342,6.866 1.96,7.127 1.508,7.318 1.064,7.505 0.551,7.601 -0.023,7.601 -0.589,7.601 -1.087,7.502 -1.516,7.306 -1.952,7.111 -2.312,6.843 -2.61,6.51 -2.909,6.173 -3.131,5.779 -3.284,5.328 -3.437,4.876 -3.513,4.394 -3.513,3.881 -3.513,3.349 -3.437,2.848 -3.299,2.38 -3.154,1.91 -2.939,1.5 -2.649,1.148 -2.358,0.796 -1.998,0.517 -1.554,0.31 -1.11,0.103 -0.589,0 0,0 m -3.093,-4.088 c 0.115,-0.918 0.421,-1.584 0.919,-1.997 0.505,-0.41 1.186,-0.617 2.044,-0.617 0.528,0 0.987,0.096 1.385,0.288 0.399,0.195 0.75,0.447 1.049,0.757 0.299,0.314 0.551,0.674 0.75,1.076 0.207,0.402 0.375,0.815 0.498,1.24 0.13,0.425 0.229,0.842 0.291,1.251 0.061,0.41 0.099,0.777 0.115,1.102 C 3.697,-1.301 3.399,-1.573 3.069,-1.81 2.733,-2.048 2.373,-2.246 1.982,-2.408 1.6,-2.572 1.194,-2.694 0.781,-2.779 c -0.414,-0.08 -0.827,-0.122 -1.232,-0.122 -1.026,0 -1.945,0.168 -2.741,0.509 -0.796,0.337 -1.47,0.804 -2.013,1.401 -0.536,0.593 -0.949,1.293 -1.233,2.093 -0.283,0.804 -0.428,1.661 -0.428,2.58 0,0.505 0.053,1.022 0.145,1.554 0.1,0.532 0.253,1.052 0.475,1.557 0.214,0.506 0.497,0.984 0.857,1.432 0.352,0.448 0.789,0.842 1.301,1.183 0.521,0.336 1.118,0.604 1.807,0.803 0.689,0.196 1.477,0.295 2.373,0.295 0.78,0 1.485,-0.08 2.105,-0.241 C 2.817,10.104 3.376,9.882 3.858,9.595 4.34,9.312 4.754,8.971 5.113,8.581 5.473,8.187 5.779,7.758 6.039,7.291 6.292,6.828 6.506,6.334 6.667,5.81 6.828,5.289 6.958,4.754 7.05,4.21 7.142,3.666 7.21,3.119 7.249,2.576 7.287,2.029 7.31,1.496 7.31,0.98 7.303,0.069 7.249,-0.827 7.149,-1.703 7.05,-2.583 6.881,-3.414 6.644,-4.202 6.414,-4.991 6.101,-5.718 5.718,-6.384 5.335,-7.05 4.868,-7.62 4.302,-8.102 3.743,-8.584 3.077,-8.963 2.312,-9.235 c -0.766,-0.272 -1.638,-0.41 -2.633,-0.41 -0.873,0 -1.654,0.115 -2.358,0.344 -0.704,0.23 -1.309,0.579 -1.822,1.042 -0.513,0.467 -0.926,1.045 -1.24,1.737 -0.314,0.689 -0.521,1.5 -0.62,2.434 z" /></g><g
           transform="translate(558.6197,257.5445)"
           id="g150"><path
             id="path152"
             style="fill:none;stroke:#ffffff;stroke-width:0.222;stroke-linecap:round;stroke-linejoin:round;stroke-miterlimit:10;stroke-dasharray:none;stroke-opacity:1"
             d="M 0,0 C 0.574,0 1.095,0.1 1.546,0.299 1.998,0.501 2.38,0.773 2.687,1.121 2.993,1.474 3.23,1.879 3.391,2.346 3.552,2.809 3.628,3.31 3.628,3.843 3.628,4.378 3.544,4.88 3.383,5.343 3.215,5.806 2.97,6.2 2.656,6.533 2.342,6.866 1.96,7.127 1.508,7.318 1.064,7.505 0.551,7.601 -0.023,7.601 -0.589,7.601 -1.087,7.502 -1.516,7.306 -1.952,7.111 -2.312,6.843 -2.61,6.51 -2.909,6.173 -3.131,5.779 -3.284,5.328 -3.437,4.876 -3.513,4.394 -3.513,3.881 -3.513,3.349 -3.437,2.848 -3.299,2.38 -3.154,1.91 -2.939,1.5 -2.649,1.148 -2.358,0.796 -1.998,0.517 -1.554,0.31 -1.11,0.103 -0.589,0 0,0 Z m -3.093,-4.088 c 0.115,-0.918 0.421,-1.584 0.919,-1.997 0.505,-0.41 1.186,-0.617 2.044,-0.617 0.528,0 0.987,0.096 1.385,0.288 0.399,0.195 0.75,0.447 1.049,0.757 0.299,0.314 0.551,0.674 0.75,1.076 0.207,0.402 0.375,0.815 0.498,1.24 0.13,0.425 0.229,0.842 0.291,1.251 0.061,0.41 0.099,0.777 0.115,1.102 C 3.697,-1.301 3.399,-1.573 3.069,-1.81 2.733,-2.048 2.373,-2.246 1.982,-2.408 1.6,-2.572 1.194,-2.694 0.781,-2.779 c -0.414,-0.08 -0.827,-0.122 -1.232,-0.122 -1.026,0 -1.945,0.168 -2.741,0.509 -0.796,0.337 -1.47,0.804 -2.013,1.401 -0.536,0.593 -0.949,1.293 -1.233,2.093 -0.283,0.804 -0.428,1.661 -0.428,2.58 0,0.505 0.053,1.022 0.145,1.554 0.1,0.532 0.253,1.052 0.475,1.557 0.214,0.506 0.497,0.984 0.857,1.432 0.352,0.448 0.789,0.842 1.301,1.183 0.521,0.336 1.118,0.604 1.807,0.803 0.689,0.196 1.477,0.295 2.373,0.295 0.78,0 1.485,-0.08 2.105,-0.241 C 2.817,10.104 3.376,9.882 3.858,9.595 4.34,9.312 4.754,8.971 5.113,8.581 5.473,8.187 5.779,7.758 6.039,7.291 6.292,6.828 6.506,6.334 6.667,5.81 6.828,5.289 6.958,4.754 7.05,4.21 7.142,3.666 7.21,3.119 7.249,2.576 7.287,2.029 7.31,1.496 7.31,0.98 7.303,0.069 7.249,-0.827 7.149,-1.703 7.05,-2.583 6.881,-3.414 6.644,-4.202 6.414,-4.991 6.101,-5.718 5.718,-6.384 5.335,-7.05 4.868,-7.62 4.302,-8.102 3.743,-8.584 3.077,-8.963 2.312,-9.235 c -0.766,-0.272 -1.638,-0.41 -2.633,-0.41 -0.873,0 -1.654,0.115 -2.358,0.344 -0.704,0.23 -1.309,0.579 -1.822,1.042 -0.513,0.467 -0.926,1.045 -1.24,1.737 -0.314,0.689 -0.521,1.5 -0.62,2.434 z" /></g><g
           transform="translate(579.7462,262.6539)"
           id="g154"><path
             id="path156"
             style="fill:#ffffff;fill-opacity:1;fill-rule:nonzero;stroke:none"
             d="m 0,0 c 0,-0.432 0.076,-0.811 0.238,-1.14 0.152,-0.326 0.367,-0.598 0.635,-0.816 0.26,-0.222 0.566,-0.386 0.918,-0.493 0.352,-0.111 0.72,-0.165 1.102,-0.165 0.376,0 0.72,0.058 1.034,0.18 0.314,0.119 0.589,0.291 0.819,0.513 0.229,0.222 0.406,0.493 0.536,0.819 C 5.412,-0.781 5.481,-0.413 5.488,0 5.481,0.406 5.412,0.762 5.282,1.072 5.144,1.382 4.96,1.634 4.723,1.837 4.486,2.04 4.203,2.193 3.873,2.296 3.544,2.4 3.184,2.453 2.794,2.453 2.442,2.453 2.098,2.404 1.76,2.304 1.416,2.205 1.118,2.051 0.858,1.853 0.589,1.654 0.383,1.401 0.222,1.091 0.061,0.781 -0.015,0.417 0,0 m -1.003,-8.619 c 0,-0.52 0.1,-0.98 0.299,-1.382 0.199,-0.402 0.474,-0.742 0.819,-1.018 0.352,-0.275 0.765,-0.482 1.24,-0.624 0.474,-0.138 0.987,-0.21 1.538,-0.21 0.536,0 1.026,0.08 1.478,0.237 0.452,0.153 0.842,0.375 1.171,0.662 0.329,0.287 0.59,0.632 0.773,1.034 0.184,0.402 0.283,0.85 0.283,1.339 0,0.441 -0.107,0.85 -0.314,1.233 C 6.078,-6.965 5.802,-6.633 5.45,-6.349 5.105,-6.066 4.7,-5.844 4.248,-5.684 3.797,-5.519 3.33,-5.439 2.832,-5.439 2.319,-5.439 1.837,-5.511 1.37,-5.66 0.903,-5.814 0.49,-6.024 0.138,-6.296 -0.214,-6.568 -0.49,-6.904 -0.696,-7.299 -0.903,-7.693 -1.003,-8.133 -1.003,-8.619 m -2.365,8.738 c 0,0.857 0.161,1.615 0.475,2.273 0.321,0.658 0.758,1.21 1.301,1.65 0.551,0.443 1.194,0.781 1.921,1.01 0.735,0.23 1.508,0.345 2.327,0.345 1.133,0 2.098,-0.154 2.886,-0.456 C 6.33,4.639 6.973,4.241 7.463,3.751 7.953,3.257 8.313,2.694 8.527,2.063 8.749,1.431 8.857,0.785 8.857,0.119 8.857,-0.314 8.826,-0.72 8.757,-1.095 8.688,-1.47 8.573,-1.822 8.42,-2.147 8.267,-2.473 8.068,-2.771 7.823,-3.039 7.586,-3.307 7.287,-3.548 6.935,-3.762 7.402,-3.996 7.823,-4.275 8.206,-4.604 8.588,-4.933 8.91,-5.301 9.178,-5.706 c 0.268,-0.406 0.474,-0.846 0.62,-1.321 0.145,-0.478 0.222,-0.98 0.222,-1.512 0,-1.006 -0.199,-1.894 -0.582,-2.663 -0.382,-0.774 -0.903,-1.42 -1.554,-1.945 -0.658,-0.528 -1.408,-0.926 -2.265,-1.197 -0.858,-0.272 -1.761,-0.41 -2.718,-0.41 -1.003,0 -1.944,0.13 -2.832,0.39 -0.88,0.257 -1.653,0.647 -2.319,1.167 -0.666,0.517 -1.195,1.164 -1.577,1.945 -0.391,0.777 -0.582,1.68 -0.589,2.713 0.007,1.049 0.267,1.983 0.78,2.802 0.521,0.819 1.248,1.462 2.205,1.937 -0.337,0.21 -0.62,0.462 -0.865,0.757 -0.245,0.291 -0.444,0.609 -0.605,0.946 -0.161,0.34 -0.275,0.696 -0.352,1.071 -0.077,0.379 -0.115,0.758 -0.115,1.145" /></g><g
           transform="translate(579.7462,262.6539)"
           id="g158"><path
             id="path160"
             style="fill:none;stroke:#ffffff;stroke-width:0.222;stroke-linecap:round;stroke-linejoin:round;stroke-miterlimit:10;stroke-dasharray:none;stroke-opacity:1"
             d="m 0,0 c 0,-0.432 0.076,-0.811 0.238,-1.14 0.152,-0.326 0.367,-0.598 0.635,-0.816 0.26,-0.222 0.566,-0.386 0.918,-0.493 0.352,-0.111 0.72,-0.165 1.102,-0.165 0.376,0 0.72,0.058 1.034,0.18 0.314,0.119 0.589,0.291 0.819,0.513 0.229,0.222 0.406,0.493 0.536,0.819 C 5.412,-0.781 5.481,-0.413 5.488,0 5.481,0.406 5.412,0.762 5.282,1.072 5.144,1.382 4.96,1.634 4.723,1.837 4.486,2.04 4.203,2.193 3.873,2.296 3.544,2.4 3.184,2.453 2.794,2.453 2.442,2.453 2.098,2.404 1.76,2.304 1.416,2.205 1.118,2.051 0.858,1.853 0.589,1.654 0.383,1.401 0.222,1.091 0.061,0.781 -0.015,0.417 0,0 Z m -1.003,-8.619 c 0,-0.52 0.1,-0.98 0.299,-1.382 0.199,-0.402 0.474,-0.742 0.819,-1.018 0.352,-0.275 0.765,-0.482 1.24,-0.624 0.474,-0.138 0.987,-0.21 1.538,-0.21 0.536,0 1.026,0.08 1.478,0.237 0.452,0.153 0.842,0.375 1.171,0.662 0.329,0.287 0.59,0.632 0.773,1.034 0.184,0.402 0.283,0.85 0.283,1.339 0,0.441 -0.107,0.85 -0.314,1.233 C 6.078,-6.965 5.802,-6.633 5.45,-6.349 5.105,-6.066 4.7,-5.844 4.248,-5.684 3.797,-5.519 3.33,-5.439 2.832,-5.439 2.319,-5.439 1.837,-5.511 1.37,-5.66 0.903,-5.814 0.49,-6.024 0.138,-6.296 -0.214,-6.568 -0.49,-6.904 -0.696,-7.299 -0.903,-7.693 -1.003,-8.133 -1.003,-8.619 Z m -2.365,8.738 c 0,0.857 0.161,1.615 0.475,2.273 0.321,0.658 0.758,1.21 1.301,1.65 0.551,0.443 1.194,0.781 1.921,1.01 0.735,0.23 1.508,0.345 2.327,0.345 1.133,0 2.098,-0.154 2.886,-0.456 C 6.33,4.639 6.973,4.241 7.463,3.751 7.953,3.257 8.313,2.694 8.527,2.063 8.749,1.431 8.857,0.785 8.857,0.119 8.857,-0.314 8.826,-0.72 8.757,-1.095 8.688,-1.47 8.573,-1.822 8.42,-2.147 8.267,-2.473 8.068,-2.771 7.823,-3.039 7.586,-3.307 7.287,-3.548 6.935,-3.762 7.402,-3.996 7.823,-4.275 8.206,-4.604 8.588,-4.933 8.91,-5.301 9.178,-5.706 c 0.268,-0.406 0.474,-0.846 0.62,-1.321 0.145,-0.478 0.222,-0.98 0.222,-1.512 0,-1.006 -0.199,-1.894 -0.582,-2.663 -0.382,-0.774 -0.903,-1.42 -1.554,-1.945 -0.658,-0.528 -1.408,-0.926 -2.265,-1.197 -0.858,-0.272 -1.761,-0.41 -2.718,-0.41 -1.003,0 -1.944,0.13 -2.832,0.39 -0.88,0.257 -1.653,0.647 -2.319,1.167 -0.666,0.517 -1.195,1.164 -1.577,1.945 -0.391,0.777 -0.582,1.68 -0.589,2.713 0.007,1.049 0.267,1.983 0.78,2.802 0.521,0.819 1.248,1.462 2.205,1.937 -0.337,0.21 -0.62,0.462 -0.865,0.757 -0.245,0.291 -0.444,0.609 -0.605,0.946 -0.161,0.34 -0.275,0.696 -0.352,1.071 -0.077,0.379 -0.115,0.758 -0.115,1.145 z" /></g><g
           transform="translate(600.4213,263.9973)"
           id="g162"><path
             id="path164"
             style="fill:#ffffff;fill-opacity:1;fill-rule:nonzero;stroke:none"
             d="M 0,0 C 0.704,0.042 1.355,0.107 1.967,0.203 2.572,0.295 3.115,0.467 3.59,0.723 4.065,0.98 4.47,1.344 4.807,1.818 5.136,2.289 5.381,2.924 5.542,3.724 h 2.87 L 8.428,-15.769 H 5.19 L 5.182,-2.044 C 4.532,-2.35 3.781,-2.564 2.924,-2.687 2.067,-2.809 1.079,-2.882 -0.046,-2.901 Z" /></g><g
           transform="translate(600.4213,263.9973)"
           id="g166"><path
             id="path168"
             style="fill:none;stroke:#ffffff;stroke-width:0.222;stroke-linecap:round;stroke-linejoin:round;stroke-miterlimit:10;stroke-dasharray:none;stroke-opacity:1"
             d="M 0,0 C 0.704,0.042 1.355,0.107 1.967,0.203 2.572,0.295 3.115,0.467 3.59,0.723 4.065,0.98 4.47,1.344 4.807,1.818 5.136,2.289 5.381,2.924 5.542,3.724 h 2.87 L 8.428,-15.769 H 5.19 L 5.182,-2.044 C 4.532,-2.35 3.781,-2.564 2.924,-2.687 2.067,-2.809 1.079,-2.882 -0.046,-2.901 Z" /></g></g></g></g></svg>