<?xml version="1.0" encoding="UTF-8"?>
<svg id="Layer_1" data-name="Layer 1" xmlns="http://www.w3.org/2000/svg" viewBox="0 0 391.68 351.63">
  <defs>
    <style>
      .cls-1 {
        fill: #0074bb;
      }

      .cls-2 {
        fill: #0074bc;
      }

      .cls-3 {
        fill: #ffc132;
      }

      .cls-4 {
        fill: #58595b;
      }
    </style>
  </defs>
  <g>
    <polygon class="cls-3" points="215.33 138.67 189.05 138.67 189.05 112.16 159.07 112.16 159.07 138.67 133.08 138.67 133.08 168.65 159.07 168.65 159.07 194.82 189.05 194.82 189.05 168.65 215.33 168.65 215.33 138.67"/>
    <polygon class="cls-1" points="155.3 168.65 133.08 168.65 133.08 138.67 159.07 138.67 159.07 112.16 182.96 112.16 212.94 82.21 112.43 82.21 82.45 112.16 129.1 112.16 129.1 194.84 155.3 168.65"/>
    <path class="cls-1" d="m249.03,112.16v26.5h-29.98v-56.46l-29.99,29.96v26.5h26.28v29.98h33.7v26.19l29.99-29.98v-82.66l-29.99,29.96Zm-59.98,82.68l26.2-26.19h-26.2v26.19Z"/>
  </g>
  <g>
    <g>
      <path class="cls-2" d="m86.08,217.96c-.22,0-.44,0-.65.01-.21,0-.4.03-.56.08-.16.05-.3.11-.39.19-.1.08-.15.19-.15.33,0,.22.11.42.33.57.22.16.46.34.73.56.27.22.51.49.73.83.22.34.33.8.33,1.38v21.69h-3.96v-20.99c0-.55-.11-.99-.33-1.31-.22-.32-.46-.62-.73-.89s-.51-.55-.73-.84c-.22-.29-.33-.7-.33-1.22,0-.37.08-.74.25-1.1.16-.36.42-.67.78-.94.35-.27.79-.48,1.33-.64.53-.16,1.16-.23,1.88-.21l5.75.09v2.52l-4.27-.09Z"/>
      <path class="cls-2" d="m107.02,237.58c0,1.24-.24,2.27-.72,3.09-.48.82-1.11,1.46-1.9,1.94-.79.48-1.68.82-2.69,1.01-1,.19-2.03.29-3.08.29s-2.06-.1-3.05-.3c-.98-.2-1.86-.57-2.63-1.1-.77-.53-1.39-1.27-1.87-2.2-.47-.94-.72-2.14-.75-3.61h4.02c0,.81.13,1.47.38,1.99.25.52.58.93.99,1.22.4.3.86.51,1.37.62.51.11,1.02.17,1.53.17.58,0,1.14-.05,1.67-.15.53-.1,1-.26,1.4-.49.4-.23.73-.54.98-.92.25-.38.37-.86.37-1.43,0-.48-.12-.88-.36-1.19-.24-.31-.55-.57-.92-.75-.37-.19-.79-.33-1.26-.43-.46-.1-.92-.17-1.37-.21-1.11-.1-2.17-.22-3.17-.36-1-.13-1.89-.36-2.65-.69-.76-.32-1.37-.79-1.83-1.39-.46-.61-.69-1.43-.69-2.48,0-.78.21-1.5.62-2.16.41-.66.97-1.22,1.66-1.7.7-.47,1.51-.84,2.45-1.1.94-.26,1.94-.39,3-.39.99,0,1.97.1,2.93.3.97.2,1.84.54,2.61,1,.77.46,1.4,1.08,1.9,1.83.49.76.76,1.68.81,2.78h-3.98c-.04-.49-.21-.91-.49-1.25-.28-.34-.63-.61-1.05-.83-.41-.22-.87-.37-1.37-.46-.5-.09-.99-.13-1.45-.13s-.92.04-1.36.12c-.44.08-.84.21-1.18.37-.34.17-.62.36-.83.6-.21.23-.31.5-.31.8,0,.31.15.57.44.76.29.19.67.35,1.13.46.46.11.99.2,1.57.26.58.06,1.18.12,1.78.18.93.09,1.84.24,2.72.44.88.2,1.67.52,2.35.96.68.43,1.23,1.01,1.64,1.74.41.73.62,1.66.62,2.8Z"/>
      <path class="cls-2" d="m124.84,231.82c.09.84.12,1.71.08,2.62-.04.91-.17,1.79-.4,2.66-.23.87-.57,1.7-1,2.48-.43.79-1,1.48-1.69,2.07-.69.59-1.52,1.06-2.49,1.42-.97.35-2.11.53-3.42.53h-2.63l-4.97-14.88,3.3-2.47,4.65,13.89h.04c.87,0,1.61-.22,2.22-.65.61-.43,1.11-1.01,1.48-1.72.37-.71.63-1.52.76-2.42.13-.9.16-1.81.09-2.74-.13-1.62-.76-2.79-1.87-3.52-1.11-.73-2.8-.92-5.08-.6v-3.44c1.71-.22,3.21-.22,4.52.01,1.3.23,2.41.65,3.31,1.26.91.61,1.61,1.38,2.12,2.33.51.94.82,2,.94,3.17Z"/>
      <path class="cls-2" d="m147.25,240.76c-.28.74-.66,1.34-1.16,1.81-.49.46-1.08.81-1.74,1.02-.67.22-1.39.33-2.17.33-.57,0-1.08-.06-1.53-.19-.45-.13-.85-.29-1.21-.49-.36-.2-.68-.43-.96-.69-.28-.25-.51-.52-.71-.79-.19.27-.43.53-.71.79-.28.25-.6.48-.96.69-.36.2-.77.37-1.22.49-.46.13-.97.19-1.54.19-.76,0-1.48-.11-2.15-.33-.67-.22-1.25-.56-1.74-1.02-.49-.46-.88-1.07-1.17-1.81-.28-.74-.43-1.64-.43-2.69v-12.88h3.98v12.79c0,.88.15,1.56.44,2.02.29.46.75.7,1.38.7s1.12-.25,1.53-.74c.4-.49.61-1.26.61-2.29v-12.47h3.96v12.47c0,1.03.2,1.8.61,2.29.4.49.91.74,1.51.74.63,0,1.09-.23,1.39-.7.3-.46.45-1.14.45-2.02v-12.79h3.96v12.88c0,1.05-.14,1.94-.42,2.69Z"/>
      <path class="cls-2" d="m159.05,243.78c-2.79.07-4.91-.39-6.38-1.39-1.47-1-2.18-2.56-2.14-4.67.01-.51.12-.99.3-1.45.19-.46.43-.88.73-1.26.3-.38.65-.71,1.06-.98s.82-.47,1.26-.61c-.33-.07-.67-.2-1.01-.38-.34-.18-.66-.42-.93-.71-.28-.29-.51-.64-.69-1.05s-.27-.87-.27-1.39c0-1.09.33-2.03,1-2.82.67-.79,1.56-1.35,2.69-1.7.63-.18,1.38-.28,2.25-.29.87-.01,1.7.04,2.49.16v3.21c-.63-.12-1.21-.18-1.75-.19-.54,0-1.01.05-1.42.17-.4.12-.72.3-.96.54-.23.24-.35.55-.35.92s.1.64.29.85c.19.21.45.37.76.49.31.12.67.2,1.08.24.4.04.82.06,1.24.06h1.75v3.24h-1.26c-1.44,0-2.51.28-3.21.83-.7.55-1.06,1.26-1.06,2.11,0,.58.13,1.06.39,1.43.26.37.62.66,1.08.87.46.21.99.35,1.6.43.61.08,1.25.1,1.94.09l4.43-.09v-15.24h3.96v18.41l-8.88.18Z"/>
      <path class="cls-2" d="m175.48,243.6v-12.99c0-.4-.12-.77-.36-1.09-.24-.32-.58-.58-1.03-.79-.45-.2-1-.33-1.65-.39-.65-.06-1.39-.02-2.21.11v-3.21c1.27-.21,2.47-.26,3.6-.16,1.12.1,2.1.36,2.93.75.83.4,1.49.94,1.97,1.63.48.69.72,1.51.72,2.47v13.66h-3.96Z"/>
      <path class="cls-2" d="m198.75,240.46c-.46.79-1.08,1.43-1.84,1.94-.76.51-1.64.89-2.64,1.13-1,.25-2.03.37-3.11.37s-2.14-.12-3.14-.37c-1-.25-1.88-.63-2.64-1.13-.76-.51-1.37-1.16-1.83-1.94-.46-.79-.69-1.72-.69-2.8v-12.47h3.98v12.25c0,.57.12,1.06.35,1.46.23.4.55.74.94,1.01.4.27.86.47,1.38.6.52.13,1.07.19,1.64.19s1.12-.06,1.64-.19c.52-.13.99-.33,1.38-.6.4-.27.72-.61.96-1.01.24-.4.36-.89.36-1.46v-12.25h3.96v12.47c0,1.08-.23,2.01-.7,2.8Z"/>
      <path class="cls-2" d="m206.99,243.6v-12.99c0-.4-.12-.77-.36-1.09-.24-.32-.58-.58-1.03-.79-.45-.2-1-.33-1.65-.39-.65-.06-1.39-.02-2.21.11v-3.21c1.27-.21,2.47-.26,3.6-.16,1.12.1,2.1.36,2.93.75.83.4,1.49.94,1.97,1.63.48.69.72,1.51.72,2.47v13.66h-3.96Z"/>
      <path class="cls-2" d="m226.9,243.64v-8.97c-.27.15-.63.27-1.07.37-.44.1-.93.18-1.46.25-.53.07-1.08.12-1.63.17-.55.05-1.06.08-1.53.09-.42.03-.84.09-1.26.18-.42.09-.8.24-1.13.44-.34.2-.61.46-.83.78-.22.31-.33.7-.33,1.17,0,.7.2,1.23.6,1.58.4.35.9.58,1.51.69.61.1,1.27.12,1.99.03.72-.08,1.41-.21,2.07-.37v3.46c-1.26.18-2.49.27-3.71.27s-2.3-.18-3.25-.54c-.95-.36-1.72-.94-2.29-1.75-.58-.81-.87-1.93-.87-3.37,0-1.77.54-3.14,1.62-4.12,1.08-.98,2.64-1.57,4.67-1.76.63-.06,1.33-.09,2.11-.1.78,0,1.51-.06,2.2-.15.69-.09,1.27-.26,1.74-.52.47-.25.71-.66.71-1.21,0-.34-.11-.65-.33-.92-.22-.27-.51-.49-.89-.67-.37-.18-.81-.32-1.29-.42-.49-.1-1-.15-1.54-.15s-1.04.06-1.55.17c-.51.11-.97.28-1.39.49-.42.22-.77.49-1.06.83-.28.34-.47.73-.56,1.18h-4.05c.18-1.09.55-2.02,1.1-2.78.55-.76,1.23-1.37,2.03-1.83.8-.46,1.68-.8,2.63-1,.95-.2,1.91-.3,2.89-.3s1.92.09,2.89.28c.97.19,1.84.51,2.62.96.78.45,1.41,1.04,1.89,1.78.48.73.72,1.65.72,2.74v13.03h-3.98Z"/>
      <path class="cls-2" d="m250.51,237.15c0,1.33-.2,2.42-.6,3.26-.4.84-.93,1.49-1.6,1.97-.67.47-1.44.79-2.33.97-.88.17-1.81.26-2.79.26h-8.9v-9.01h3.98v5.8h4.05c.55,0,1.09-.04,1.61-.11.52-.07.97-.22,1.37-.45.4-.22.71-.54.93-.94.22-.4.33-.94.31-1.6-.03-.51-.15-.94-.36-1.29-.21-.35-.5-.64-.87-.88-.37-.23-.8-.41-1.29-.54-.49-.13-1.03-.22-1.62-.28-1.12-.1-2.2-.21-3.24-.33s-1.95-.32-2.74-.62c-.79-.3-1.42-.73-1.88-1.3-.46-.57-.66-1.37-.62-2.4.03-.72.24-1.37.64-1.96.4-.58.94-1.09,1.64-1.51.7-.42,1.53-.75,2.49-.98.97-.23,2.03-.35,3.18-.35,1.03,0,2.03.09,3,.27.97.18,1.84.48,2.61.91.77.43,1.41.99,1.92,1.69.51.7.82,1.55.94,2.57h-3.96c-.1-.42-.31-.77-.63-1.05-.31-.28-.69-.5-1.12-.67-.43-.17-.91-.3-1.44-.37-.52-.07-1.04-.11-1.55-.11s-1.02.04-1.47.11c-.46.08-.85.18-1.19.31-.34.13-.61.3-.81.49-.2.19-.3.4-.3.63,0,.24.15.43.45.57.3.14.69.25,1.18.34.49.08,1.04.15,1.67.21.63.06,1.28.12,1.96.18.94.09,1.86.25,2.74.47.88.22,1.67.57,2.35,1.02.68.46,1.23,1.06,1.64,1.82.41.76.62,1.72.62,2.89Z"/>
      <path class="cls-2" d="m266.13,243.6v-2.54c-.31.36-.69.71-1.13,1.05-.44.34-.93.64-1.46.9-.53.26-1.09.47-1.69.63-.59.16-1.19.24-1.81.24-1.02,0-1.93-.12-2.73-.37-.8-.25-1.49-.62-2.06-1.11-.57-.49-1-1.12-1.3-1.88-.3-.76-.45-1.64-.45-2.66v-12.65h3.98v12.7c0,.99.3,1.7.89,2.15.59.44,1.34.66,2.24.66.79,0,1.53-.15,2.2-.45.67-.3,1.26-.67,1.75-1.1.49-.43.88-.91,1.16-1.42.28-.51.42-.98.42-1.42v-11.12h3.96v18.41h-3.96Z"/>
      <path class="cls-2" d="m289.4,240.46c-.46.79-1.08,1.43-1.84,1.94-.76.51-1.64.89-2.64,1.13-1,.25-2.03.37-3.11.37s-2.14-.12-3.14-.37c-1-.25-1.88-.63-2.64-1.13-.76-.51-1.37-1.16-1.83-1.94-.46-.79-.69-1.72-.69-2.8v-12.47h3.98v12.25c0,.57.12,1.06.35,1.46.23.4.55.74.94,1.01.4.27.86.47,1.38.6.52.13,1.07.19,1.64.19s1.12-.06,1.64-.19c.52-.13.99-.33,1.38-.6.4-.27.72-.61.96-1.01.24-.4.36-.89.36-1.46v-12.25h3.96v12.47c0,1.08-.23,2.01-.7,2.8Z"/>
      <path class="cls-2" d="m286.12,250.97v-3.51h-1.82v-2.49h5.8v6h-3.98Z"/>
      <path class="cls-2" d="m309.05,237.58c0,1.24-.24,2.27-.72,3.09-.48.82-1.11,1.46-1.9,1.94-.79.48-1.68.82-2.69,1.01-1,.19-2.03.29-3.08.29s-2.06-.1-3.05-.3c-.98-.2-1.86-.57-2.63-1.1-.77-.53-1.39-1.27-1.87-2.2-.47-.94-.72-2.14-.75-3.61h4.02c0,.81.13,1.47.38,1.99.25.52.58.93.99,1.22.4.3.86.51,1.37.62.51.11,1.02.17,1.53.17.58,0,1.14-.05,1.67-.15.53-.1,1-.26,1.4-.49.4-.23.73-.54.98-.92.25-.38.37-.86.37-1.43,0-.48-.12-.88-.36-1.19-.24-.31-.55-.57-.92-.75-.37-.19-.79-.33-1.26-.43-.46-.1-.92-.17-1.37-.21-1.11-.1-2.17-.22-3.17-.36-1-.13-1.89-.36-2.65-.69-.76-.32-1.37-.79-1.83-1.39-.46-.61-.69-1.43-.69-2.48,0-.78.21-1.5.62-2.16.41-.66.97-1.22,1.66-1.7.7-.47,1.51-.84,2.45-1.1.94-.26,1.94-.39,3-.39.99,0,1.97.1,2.93.3.97.2,1.84.54,2.61,1,.77.46,1.4,1.08,1.9,1.83.49.76.76,1.68.81,2.78h-3.98c-.05-.49-.21-.91-.49-1.25-.28-.34-.63-.61-1.05-.83-.41-.22-.87-.37-1.37-.46-.5-.09-.99-.13-1.45-.13s-.92.04-1.36.12c-.44.08-.84.21-1.18.37-.34.17-.62.36-.83.6-.21.23-.31.5-.31.8,0,.31.15.57.44.76.29.19.67.35,1.13.46.46.11.99.2,1.57.26.58.06,1.18.12,1.78.18.93.09,1.84.24,2.72.44.88.2,1.67.52,2.35.96.68.43,1.23,1.01,1.64,1.74.41.73.62,1.66.62,2.8Z"/>
      <path class="cls-2" d="m294.1,222.88v-2.47h10.99v-2.36h3.98v4.83h-14.97Z"/>
    </g>
    <g>
      <path class="cls-4" d="m86.49,269.45v-11.67l-3.99.04v-2.32h10.68v2.32l-3.99-.04v11.67h-2.69Z"/>
      <path class="cls-4" d="m105.1,269.45v-5.96h-5.67v5.96h-2.69v-13.95h2.69v5.67h5.67v-5.67h2.69v13.95h-2.69Z"/>
      <path class="cls-4" d="m118.57,269.7c-1.08,0-2.02-.18-2.84-.55-.81-.37-1.49-.87-2.04-1.52-.55-.65-.96-1.41-1.23-2.3-.28-.88-.41-1.83-.41-2.86s.14-1.97.41-2.86c.28-.88.69-1.65,1.23-2.3.54-.65,1.22-1.16,2.04-1.52.81-.37,1.76-.55,2.84-.55s2.02.18,2.84.55c.81.37,1.49.87,2.04,1.52.54.65.96,1.41,1.23,2.3.28.88.41,1.84.41,2.86s-.14,1.97-.41,2.86c-.28.88-.69,1.65-1.23,2.3-.55.65-1.22,1.16-2.04,1.52-.81.37-1.76.55-2.84.55Zm0-2.19c1.26,0,2.21-.44,2.86-1.32.65-.88.97-2.12.97-3.7s-.32-2.82-.97-3.7c-.65-.88-1.6-1.32-2.86-1.32s-2.21.44-2.86,1.32c-.65.88-.97,2.12-.97,3.7s.32,2.82.97,3.7c.65.88,1.6,1.32,2.86,1.32Z"/>
      <path class="cls-4" d="m137.88,269.45l-4.76-7.91c-.29-.48-.55-.96-.78-1.43-.23-.47-.42-.96-.59-1.47h-.06c.11.58.2,1.14.26,1.69.06.55.09,1.04.09,1.48v7.64h-2.69v-13.95h2.9l4.55,7.91c.29.48.55.96.78,1.43.23.47.42.96.59,1.47h.06c-.11-.58-.2-1.14-.26-1.69-.06-.55-.09-1.04-.09-1.48v-7.64h2.69v13.95h-2.69Z"/>
      <path class="cls-4" d="m145.54,269.45v-13.95h5.67c1.56,0,2.71.34,3.46,1.02.74.68,1.12,1.59,1.12,2.72,0,.36-.06.69-.17.98-.11.3-.26.56-.43.8-.18.23-.38.44-.6.61-.22.17-.44.31-.66.42.68.19,1.25.56,1.72,1.11.47.55.7,1.28.7,2.2,0,.58-.1,1.12-.3,1.61-.2.5-.51.93-.94,1.29-.43.37-.97.65-1.62.86-.66.21-1.44.31-2.35.31h-5.59Zm5.69-8.28c.58,0,1.06-.14,1.43-.42.37-.28.56-.73.56-1.36,0-.52-.18-.93-.54-1.23-.36-.3-.85-.44-1.47-.44h-3.06v3.46h3.08Zm-.15,6.06c.83,0,1.48-.18,1.95-.54.47-.36.7-.85.7-1.47s-.23-1.09-.7-1.41c-.47-.32-1.14-.48-2.01-.48h-2.88v3.89h2.94Z"/>
      <path class="cls-4" d="m169.07,255.5h2.69v8.28c0,2.01-.5,3.5-1.49,4.47-.99.97-2.37,1.45-4.12,1.45s-3.13-.48-4.12-1.45c-.99-.97-1.49-2.46-1.49-4.47v-8.28h2.69v8.3c0,1.26.26,2.19.78,2.79.52.61,1.23.91,2.14.91s1.62-.3,2.14-.91c.52-.61.78-1.54.78-2.79v-8.3Z"/>
      <path class="cls-4" d="m184.41,269.45l-3-5.22h-2.05v5.22h-2.69v-13.95h5.24c.8,0,1.51.11,2.13.34.62.23,1.15.53,1.57.92.43.39.75.85.97,1.38.22.53.33,1.09.33,1.69,0,.97-.27,1.79-.81,2.46-.54.68-1.24,1.17-2.11,1.47l3.29,5.69h-2.88Zm-2.48-7.53c.72,0,1.28-.18,1.69-.55.41-.37.61-.88.61-1.54,0-.62-.19-1.11-.56-1.47-.37-.36-.95-.54-1.74-.54h-2.57v4.1h2.57Z"/>
      <path class="cls-4" d="m191.18,269.45v-13.95h2.69v13.95h-2.69Z"/>
      <path class="cls-4" d="m214.03,269.45v-5.96h-5.67v5.96h-2.69v-13.95h2.69v5.67h5.67v-5.67h2.69v13.95h-2.69Z"/>
      <path class="cls-4" d="m227.5,269.7c-1.08,0-2.02-.18-2.84-.55-.81-.37-1.49-.87-2.04-1.52-.55-.65-.96-1.41-1.23-2.3-.28-.88-.41-1.83-.41-2.86s.14-1.97.41-2.86c.28-.88.69-1.65,1.23-2.3.54-.65,1.22-1.16,2.04-1.52.81-.37,1.76-.55,2.84-.55s2.02.18,2.84.55c.81.37,1.49.87,2.04,1.52.54.65.96,1.41,1.23,2.3.28.88.41,1.84.41,2.86s-.14,1.97-.41,2.86c-.28.88-.69,1.65-1.23,2.3-.55.65-1.22,1.16-2.04,1.52-.81.37-1.76.55-2.84.55Zm0-2.19c1.26,0,2.21-.44,2.86-1.32.65-.88.97-2.12.97-3.7s-.32-2.82-.97-3.7c-.65-.88-1.6-1.32-2.86-1.32s-2.21.44-2.86,1.32c-.65.88-.97,2.12-.97,3.7s.32,2.82.97,3.7c.65.88,1.6,1.32,2.86,1.32Z"/>
      <path class="cls-4" d="m238.22,266.45c.5.28,1.06.51,1.69.7.63.19,1.25.29,1.87.29.79,0,1.45-.16,1.99-.47s.81-.79.81-1.44c0-.32-.08-.59-.24-.81-.16-.22-.37-.41-.64-.57-.27-.16-.57-.3-.91-.42-.34-.12-.69-.25-1.05-.37-.43-.14-.88-.31-1.37-.51-.48-.2-.93-.46-1.33-.79-.41-.32-.75-.73-1.01-1.21-.27-.48-.4-1.08-.4-1.78,0-.52.09-1.02.28-1.49.19-.47.48-.88.88-1.22.4-.34.91-.62,1.53-.82.62-.2,1.37-.3,2.24-.3.79,0,1.51.08,2.16.23.66.15,1.28.38,1.87.68l-.68,2.07c-.52-.23-1.07-.41-1.64-.54-.57-.12-1.09-.19-1.57-.19-.83,0-1.44.14-1.84.43-.4.29-.6.66-.6,1.1,0,.32.08.59.23.82.15.23.35.42.6.59.25.17.53.31.85.43.32.12.64.24.97.35.5.17,1,.36,1.51.57.51.21.97.49,1.39.82.41.33.75.73,1.01,1.21.26.48.39,1.06.39,1.75s-.13,1.31-.4,1.82c-.27.51-.63.94-1.1,1.28-.46.35-1.01.6-1.65.77-.63.17-1.32.25-2.07.25-.92,0-1.75-.09-2.48-.28-.73-.19-1.39-.44-1.97-.78l.68-2.19Z"/>
      <path class="cls-4" d="m251.51,269.45v-13.95h5.03c.76,0,1.44.12,2.05.35.61.23,1.12.55,1.53.95.41.4.73.88.95,1.43.22.55.33,1.14.33,1.76s-.12,1.25-.35,1.81c-.23.56-.57,1.05-.99,1.46-.43.41-.95.74-1.57.97-.62.23-1.31.35-2.07.35h-2.21v4.86h-2.69Zm4.91-7.18c.72,0,1.28-.2,1.69-.61s.61-.96.61-1.67c0-.66-.19-1.19-.56-1.58-.37-.39-.91-.59-1.61-.59h-2.34v4.45h2.21Z"/>
      <path class="cls-4" d="m265.62,269.45v-13.95h2.69v13.95h-2.69Z"/>
      <path class="cls-4" d="m275.87,269.45v-11.67l-3.99.04v-2.32h10.68v2.32l-3.99-.04v11.67h-2.69Z"/>
      <path class="cls-4" d="m293.77,269.45l-1.06-3.13h-5.05l-1.06,3.13h-2.81l5.03-13.95h2.73l5.03,13.95h-2.81Zm-2.53-7.45l-1.03-3.56h-.04l-1.03,3.56-.68,2.09h3.48l-.68-2.09Z"/>
      <path class="cls-4" d="m300.23,269.45v-13.95l2.69-.02v11.65h6.17v2.32h-8.86Z"/>
    </g>
  </g>
</svg>